<?xml version="1.0" encoding="UTF-8"?>
<svg xmlns="http://www.w3.org/2000/svg" xmlns:xlink="http://www.w3.org/1999/xlink" version="1.2" >
<font id="Newslab Book">
<font-face  font-family="Newslab" units-per-em="1000" ascent="750" descent="-250" font-style="normal" font-weight="350" font-stretch="normal" cap-height="688" x-height="467" underline-position="-75" underline-thickness="50" />
<missing-glyph  horiz-adv-x="313" d="" />
<glyph glyph-name="NULL" d="" />
<glyph glyph-name="CR" unicode="&#xd;" horiz-adv-x="250" d="" />
<glyph glyph-name="space" unicode="&#x20;" horiz-adv-x="238" d="" />
<glyph glyph-name="exclam" unicode="&#x21;" horiz-adv-x="256" d="M159 169 L170 746 L87 746 L97 169 L159 169 Z M178 43 C178 70 155 93 128 93 C101 93 78 70 78 43 C78 15 101 -7 128 -7 C155 -7 178 15 178 43 L178 43 Z " />
<glyph glyph-name="quotedbl" unicode="&#x22;" horiz-adv-x="314" d="M122 568 L126 754 L61 754 L66 568 L122 568 Z M248 568 L253 754 L188 754 L193 568 L248 568 Z " />
<glyph glyph-name="numbersign" unicode="&#x23;" horiz-adv-x="627" d="M525 184 L525 247 L429 247 L474 424 L591 424 L591 487 L490 487 L542 694 L470 694 L418 487 L282 487 L334 694 L262 694 L210 487 L102 487 L102 424 L194 424 L149 247 L36 247 L36 184 L133 184 L87 0 L159 0 L205 184 L341 184 L295 0 L367 0 L413 184 L525 184 Z M266 424 L402 424 L357 247 L221 247 L266 424 Z " />
<glyph glyph-name="dollar" unicode="&#x24;" horiz-adv-x="577" d="M51 208 L50 166 C50 83 113 3 255 -6 L255 -88 L316 -88 L316 -6 C469 3 534 83 534 178 C534 431 126 339 126 514 C126 579 187 625 282 625 C396 625 436 568 436 506 L436 482 L513 482 L513 520 C513 614 444 682 316 692 L316 773 L255 773 L255 693 C117 683 46 601 46 512 C46 265 454 361 454 172 C454 101 398 62 284 62 C192 62 129 108 129 181 L129 208 L51 208 Z " />
<glyph glyph-name="percent" unicode="&#x25;" horiz-adv-x="779" d="M211 -30 L639 717 L587 748 L160 1 L211 -30 Z M325 515 C325 633 268 694 180 694 C92 694 35 633 35 515 C35 396 92 338 180 338 C268 338 325 396 325 515 L325 515 Z M100 515 C100 600 133 635 180 635 C227 635 260 600 260 515 C260 429 227 397 180 397 C133 397 100 429 100 515 L100 515 Z M743 170 C743 288 685 349 597 349 C510 349 452 288 452 170 C452 51 510 -7 597 -7 C685 -7 743 51 743 170 L743 170 Z M517 170 C517 255 550 290 597 290 C644 290 678 255 678 170 C678 84 644 52 597 52 C550 52 517 84 517 170 L517 170 Z " />
<glyph glyph-name="ampersand" unicode="&#x26;" horiz-adv-x="663" d="M490 268 C490 232 481 198 466 169 L299 355 C341 365 466 406 466 537 C466 649 375 694 293 694 C199 694 118 636 118 532 C118 464 168 399 189 372 C143 356 43 307 43 184 C43 92 116 -7 282 -7 C352 -7 417 16 467 59 L519 0 L619 0 L515 114 C544 158 561 214 561 278 L561 280 L627 280 L627 344 L490 344 L490 268 Z M283 63 C196 63 122 110 122 187 C122 276 197 311 233 322 L420 111 C384 81 336 63 283 63 L283 63 Z M198 532 C198 589 236 625 297 625 C356 625 387 580 387 533 C387 428 289 405 258 401 C237 427 198 477 198 532 L198 532 Z " />
<glyph glyph-name="quotesingle" unicode="&#x27;" horiz-adv-x="187" d="M122 568 L126 754 L61 754 L66 568 L122 568 Z " />
<glyph glyph-name="parenleft" unicode="&#x28;" horiz-adv-x="354" d="M338 706 L305 751 C242 716 41 568 41 238 C41 -92 242 -239 305 -275 L338 -230 C292 -195 115 -43 115 238 C115 519 292 671 338 706 L338 706 Z " />
<glyph glyph-name="parenright" unicode="&#x29;" horiz-adv-x="354" d="M16 706 C62 671 238 519 238 238 C238 -43 62 -195 16 -230 L49 -275 C112 -239 313 -92 313 238 C313 568 112 716 49 751 L16 706 Z " />
<glyph glyph-name="asterisk" unicode="&#x2a;" horiz-adv-x="400" d="M175 728 L173 612 L77 664 L54 625 L157 562 L84 469 L118 439 L200 531 L281 439 L316 469 L243 562 L345 625 L322 664 L226 612 L222 728 L175 728 Z " />
<glyph glyph-name="plus" unicode="&#x2b;" horiz-adv-x="542" d="M312 74 L312 287 L498 287 L498 350 L312 350 L312 563 L241 563 L241 350 L45 350 L45 287 L241 287 L241 74 L312 74 Z " />
<glyph glyph-name="comma" unicode="&#x2c;" horiz-adv-x="230" d="M91 -106 C121 -96 167 -67 167 16 C167 60 144 85 110 85 C83 85 62 65 62 39 C62 12 81 -7 104 -7 C118 -7 123 -2 123 -2 C123 -2 125 -5 125 -11 C125 -54 92 -75 80 -79 L91 -106 Z " />
<glyph glyph-name="hyphen" unicode="&#x2d;" horiz-adv-x="463" d="M398 257 L398 327 L65 327 L65 257 L398 257 Z " />
<glyph glyph-name="period" unicode="&#x2e;" horiz-adv-x="217" d="M159 43 C159 71 136 94 108 94 C81 94 58 71 58 43 C58 15 81 -7 108 -7 C136 -7 159 15 159 43 L159 43 Z " />
<glyph glyph-name="slash" unicode="&#x2f;" horiz-adv-x="384" d="M94 -100 L357 781 L290 801 L27 -80 L94 -100 Z " />
<glyph glyph-name="zero" unicode="0" horiz-adv-x="662" d="M610 339 C610 580 500 694 331 694 C162 694 52 580 52 339 C52 103 162 -7 331 -7 C500 -7 610 103 610 339 L610 339 Z M132 339 C132 545 214 625 331 625 C448 625 530 545 530 339 C530 134 448 62 331 62 C214 62 132 134 132 339 L132 339 Z " />
<glyph glyph-name="one" unicode="1" horiz-adv-x="481" d="M465 0 L465 65 L306 65 L306 688 L244 688 L39 552 L73 504 L229 589 L229 65 L53 65 L53 0 L465 0 Z " />
<glyph glyph-name="two" unicode="2" horiz-adv-x="587" d="M540 0 L540 65 L193 65 C193 65 529 213 529 474 C529 601 450 694 284 694 C116 694 46 591 46 495 L46 462 L126 462 L126 480 C126 558 174 625 286 625 C389 625 449 562 449 469 C449 230 61 56 61 56 L61 0 L540 0 Z " />
<glyph glyph-name="three" unicode="3" horiz-adv-x="593" d="M414 358 C414 358 523 389 523 508 C523 601 458 694 289 694 C158 694 71 623 71 525 L71 491 L145 491 L145 509 C145 561 182 625 286 625 C399 625 444 569 444 504 C444 405 351 383 301 383 L231 383 L231 316 L308 316 C417 316 464 266 464 199 C464 116 400 62 282 62 C159 62 89 153 81 162 L39 112 C49 99 118 -7 282 -7 C445 -7 543 73 543 197 C543 335 414 354 414 354 L414 358 Z " />
<glyph glyph-name="four" unicode="4" horiz-adv-x="570" d="M447 0 L447 183 L535 183 L535 247 L447 247 L447 688 L349 688 L27 245 L27 183 L370 183 L370 0 L447 0 Z M370 247 L111 247 L370 602 L370 247 Z " />
<glyph glyph-name="five" unicode="5" horiz-adv-x="584" d="M284 -7 C444 -7 540 79 540 221 C540 352 447 437 294 437 C211 437 161 401 161 401 L181 623 L513 623 L513 688 L114 688 L83 343 L126 324 C133 327 199 368 282 368 C402 368 463 308 463 222 C463 115 394 63 284 63 C155 63 88 148 80 158 L32 106 C44 95 118 -7 284 -7 L284 -7 Z " />
<glyph glyph-name="six" unicode="6" horiz-adv-x="611" d="M328 -7 C479 -7 572 87 572 213 C572 338 491 426 340 426 C224 426 158 383 132 362 C138 549 219 625 342 625 C430 625 482 580 487 576 L528 633 C521 640 453 694 342 694 C169 694 52 584 52 340 C52 96 166 -7 328 -7 L328 -7 Z M329 357 C432 357 495 294 495 214 C495 127 435 62 328 62 C220 62 146 128 134 288 C153 305 221 357 329 357 L329 357 Z " />
<glyph glyph-name="seven" unicode="7" horiz-adv-x="530" d="M259 -1 L517 640 L517 688 L36 688 L33 510 L95 510 L95 623 L436 623 C436 623 427 614 420 595 L177 -1 L259 -1 Z " />
<glyph glyph-name="eight" unicode="8" horiz-adv-x="600" d="M387 361 C443 372 525 429 525 525 C525 608 461 694 302 694 C141 693 74 608 74 523 C74 434 130 391 200 362 C151 349 50 309 50 183 C50 64 154 -7 300 -7 C451 -7 551 68 551 183 C551 309 436 343 387 359 L387 361 Z M472 190 C472 112 407 62 299 62 C192 62 128 114 128 190 C128 298 248 323 298 331 C386 304 472 279 472 190 L472 190 Z M153 521 C153 575 199 624 299 625 C401 625 446 575 446 520 C446 445 375 402 306 387 C244 400 153 428 153 521 L153 521 Z " />
<glyph glyph-name="nine" unicode="9" horiz-adv-x="611" d="M283 694 C132 694 40 600 40 474 C40 347 120 257 272 257 C388 257 454 299 479 320 C472 136 392 62 269 62 C182 62 129 107 124 111 L83 54 C91 47 158 -7 269 -7 C443 -7 560 103 560 347 C560 591 446 694 283 694 L283 694 Z M282 326 C180 326 116 391 116 473 C116 560 176 625 283 625 C392 625 466 558 478 396 C460 380 393 326 282 326 L282 326 Z " />
<glyph glyph-name="colon" unicode="&#x3a;" horiz-adv-x="223" d="M161 43 C161 70 139 93 111 93 C84 93 61 70 61 43 C61 15 84 -7 111 -7 C139 -7 161 15 161 43 L161 43 Z M161 442 C161 469 139 492 111 492 C84 492 61 469 61 442 C61 414 84 392 111 392 C139 392 161 414 161 442 L161 442 Z " />
<glyph glyph-name="semicolon" unicode="&#x3b;" horiz-adv-x="236" d="M165 424 C165 451 143 474 115 474 C88 474 65 451 65 424 C65 396 88 373 115 373 C143 373 165 396 165 424 L165 424 Z M95 -106 C126 -96 172 -67 172 16 C172 60 149 85 115 85 C88 85 67 65 67 39 C67 12 85 -7 109 -7 C123 -7 128 -2 128 -2 C128 -2 130 -5 130 -11 C130 -54 97 -75 85 -79 L95 -106 Z " />
<glyph glyph-name="less" unicode="&#x3c;" horiz-adv-x="378" d="M324 548 L276 598 L55 393 L55 351 L276 146 L324 196 L144 372 L324 548 Z " />
<glyph glyph-name="equal" unicode="&#x3d;" horiz-adv-x="513" d="M440 329 L440 400 L72 400 L72 329 L440 329 Z M440 95 L440 165 L72 165 L72 95 L440 95 Z " />
<glyph glyph-name="greater" unicode="&#x3e;" horiz-adv-x="378" d="M234 372 L54 196 L102 146 L323 351 L323 393 L102 598 L54 548 L234 372 Z " />
<glyph glyph-name="question" unicode="&#x3f;" horiz-adv-x="512" d="M274 194 L274 298 C325 309 474 384 474 540 C474 663 398 753 252 753 C98 753 34 653 34 559 L34 534 L113 534 L113 542 C113 620 155 684 253 684 C343 684 394 627 394 542 C394 407 281 342 207 342 L207 194 L274 194 Z M291 43 C291 71 268 94 240 94 C212 94 191 71 191 43 C191 15 212 -7 240 -7 C268 -7 291 15 291 43 L291 43 Z " />
<glyph glyph-name="at" unicode="&#x40;" horiz-adv-x="1036" d="M649 63 C649 34 668 -7 736 -7 C869 -7 989 83 989 298 C989 522 844 741 521 741 C213 741 41 509 41 259 C41 -77 295 -173 381 -208 L421 -149 C329 -115 115 -31 115 259 C115 483 267 676 521 676 C790 676 914 498 914 292 C914 124 851 53 754 53 C730 53 715 65 715 98 L715 467 L659 467 L647 402 L644 402 C644 402 598 474 488 474 C366 474 269 386 269 233 C269 79 368 -7 484 -7 C606 -7 645 69 646 70 L649 70 L649 63 Z M500 56 C425 56 343 111 343 233 C343 354 417 411 501 411 C556 411 613 384 640 334 L640 122 C626 101 585 56 500 56 L500 56 Z " />
<glyph glyph-name="A" unicode="A" horiz-adv-x="730" d="M410 688 L214 688 L214 626 L297 626 L74 62 L-1 62 L-1 0 L235 0 L235 62 L153 62 L219 233 L511 233 L578 62 L495 62 L495 0 L736 0 L736 62 L659 62 L410 688 Z M348 562 C350 568 362 602 362 602 L369 602 C369 602 381 568 383 562 L485 299 L245 299 L348 562 Z " />
<glyph glyph-name="B" unicode="B" horiz-adv-x="669" d="M368 0 C544 0 626 74 626 194 C626 325 514 352 474 358 L474 362 C505 374 581 403 581 511 C581 619 508 688 350 688 L44 688 L44 626 L133 626 L133 62 L44 62 L44 0 L368 0 Z M210 65 L210 321 L373 321 C479 321 546 278 546 197 C546 108 485 65 371 65 L210 65 Z M210 384 L210 623 L361 623 C426 623 501 599 501 502 C501 423 433 384 373 384 L210 384 Z " />
<glyph glyph-name="C" unicode="C" horiz-adv-x="662" d="M615 440 L615 472 C615 607 508 694 353 694 C171 694 51 581 51 340 C51 103 170 -7 352 -7 C519 -7 612 72 612 202 L612 212 L533 212 C533 104 464 62 356 62 C224 62 131 135 131 339 C131 545 223 625 356 625 C455 625 538 569 538 463 L538 440 L615 440 Z " />
<glyph glyph-name="D" unicode="D" horiz-adv-x="729" d="M210 65 L210 623 L317 623 C521 623 600 520 600 341 C600 164 522 65 330 65 L210 65 Z M341 0 C549 0 679 103 679 341 C679 581 549 688 327 688 L44 688 L44 626 L133 626 L133 62 L44 62 L44 0 L341 0 Z " />
<glyph glyph-name="E" unicode="E" horiz-adv-x="625" d="M570 0 L573 172 L512 172 L512 65 L210 65 L210 315 L464 315 L464 381 L210 381 L210 623 L511 623 L511 515 L574 515 L571 688 L44 688 L44 626 L133 626 L133 62 L44 62 L44 0 L570 0 Z " />
<glyph glyph-name="F" unicode="F" horiz-adv-x="604" d="M369 0 L369 62 L210 62 L210 315 L464 315 L464 381 L210 381 L210 623 L512 623 L512 515 L574 515 L571 688 L44 688 L44 626 L133 626 L133 62 L44 62 L44 0 L369 0 Z " />
<glyph glyph-name="G" unicode="G" horiz-adv-x="670" d="M615 329 L343 329 L343 263 L538 263 L538 231 C538 108 466 62 357 62 C225 62 131 135 131 339 C131 545 223 625 356 625 C455 625 538 570 538 465 L538 440 L615 440 L615 473 C615 608 508 694 353 694 C171 694 51 581 51 340 C51 103 171 -7 353 -7 C521 -7 615 81 615 232 L615 329 Z " />
<glyph glyph-name="H" unicode="H" horiz-adv-x="808" d="M765 0 L765 62 L674 62 L674 626 L765 626 L765 688 L508 688 L508 626 L597 626 L597 371 L210 371 L210 626 L301 626 L301 688 L44 688 L44 626 L133 626 L133 62 L44 62 L44 0 L301 0 L301 62 L210 62 L210 306 L597 306 L597 62 L508 62 L508 0 L765 0 Z " />
<glyph glyph-name="I" unicode="I" horiz-adv-x="344" d="M301 0 L301 62 L210 62 L210 626 L301 626 L301 688 L44 688 L44 626 L133 626 L133 62 L44 62 L44 0 L301 0 Z " />
<glyph glyph-name="J" unicode="J" horiz-adv-x="336" d="M134 19 C134 -92 91 -141 10 -167 L32 -237 C129 -220 211 -145 211 14 L211 626 L302 626 L302 688 L43 688 L43 626 L134 626 L134 19 Z " />
<glyph glyph-name="K" unicode="K" horiz-adv-x="724" d="M210 625 L294 625 L294 688 L44 688 L44 625 L133 625 L133 63 L44 63 L44 0 L308 0 L308 63 L210 63 L210 296 L350 296 L581 0 L700 0 L701 62 L631 62 L418 337 L621 625 L707 625 L707 688 L449 688 L449 625 L534 625 L350 360 L210 360 L210 625 Z " />
<glyph glyph-name="L" unicode="L" horiz-adv-x="580" d="M555 0 L558 184 L497 184 L497 65 L210 65 L210 626 L300 626 L300 688 L44 688 L44 626 L133 626 L133 62 L44 62 L44 0 L555 0 Z " />
<glyph glyph-name="M" unicode="M" horiz-adv-x="942" d="M437 54 L505 54 L709 567 L712 567 L744 62 L662 62 L662 0 L910 0 L910 62 L821 62 L787 626 L878 626 L878 688 L685 688 L522 285 C509 254 476 159 476 159 L469 159 C469 159 437 254 424 285 L260 688 L64 688 L64 626 L155 626 L121 62 L32 62 L32 0 L280 0 L280 62 L198 62 L230 567 L233 567 L437 54 Z " />
<glyph glyph-name="N" unicode="N" horiz-adv-x="818" d="M693 0 L693 626 L783 626 L783 688 L526 688 L526 626 L616 626 L616 111 L612 111 L217 688 L44 688 L44 626 L133 626 L133 62 L44 62 L44 0 L301 0 L301 62 L210 62 L210 565 L213 565 L601 0 L693 0 Z " />
<glyph glyph-name="O" unicode="O" horiz-adv-x="706" d="M656 339 C656 580 537 694 353 694 C170 694 51 580 51 339 C51 103 170 -7 353 -7 C537 -7 656 103 656 339 L656 339 Z M131 339 C131 545 222 625 353 625 C484 625 576 545 576 339 C576 134 484 62 353 62 C222 62 131 134 131 339 L131 339 Z " />
<glyph glyph-name="P" unicode="P" horiz-adv-x="623" d="M322 0 L322 62 L210 62 L210 258 L341 258 C498 258 588 333 588 475 C588 615 486 688 353 688 L44 688 L44 626 L133 626 L133 62 L44 62 L44 0 L322 0 Z M210 324 L210 623 L338 623 C428 623 508 582 508 475 C508 367 443 324 337 324 L210 324 Z " />
<glyph glyph-name="Q" unicode="Q" horiz-adv-x="706" d="M656 339 C656 580 537 694 353 694 C170 694 51 580 51 339 C51 117 156 7 320 -5 C322 -95 401 -185 535 -201 L560 -133 C462 -115 399 -80 389 -5 C552 8 656 119 656 339 L656 339 Z M131 339 C131 545 222 625 353 625 C484 625 576 545 576 339 C576 134 484 62 353 62 C222 62 131 134 131 339 L131 339 Z " />
<glyph glyph-name="R" unicode="R" horiz-adv-x="672" d="M323 0 L323 62 L210 62 L210 261 L378 261 L524 0 L648 0 L648 62 L575 62 L468 251 C462 262 451 272 451 272 L451 275 C538 296 604 360 604 479 C604 617 502 688 369 688 L44 688 L44 626 L133 626 L133 62 L44 62 L44 0 L323 0 Z M210 326 L210 623 L353 623 C445 623 525 582 525 476 C525 365 462 326 364 326 L210 326 Z " />
<glyph glyph-name="S" unicode="S" horiz-adv-x="583" d="M54 208 L54 166 C54 77 126 -7 290 -7 C464 -7 538 77 538 178 C538 431 130 339 130 514 C130 579 191 625 286 625 C400 625 440 568 440 506 L440 482 L517 482 L517 520 C517 622 436 694 285 694 C130 694 51 607 51 512 C51 265 459 361 459 172 C459 101 402 62 289 62 C196 62 133 108 133 181 L133 208 L54 208 Z " />
<glyph glyph-name="T" unicode="T" horiz-adv-x="652" d="M456 0 L456 62 L365 62 L365 623 L568 623 L568 515 L630 515 L627 688 L25 688 L22 515 L84 515 L84 623 L288 623 L288 62 L198 62 L198 0 L456 0 Z " />
<glyph glyph-name="U" unicode="U" horiz-adv-x="757" d="M564 253 C564 139 512 62 380 62 C240 62 195 145 195 259 L195 626 L286 626 L286 688 L28 688 L28 626 L118 626 L118 258 C118 82 210 -7 380 -7 C548 -7 639 82 639 258 L639 626 L730 626 L730 688 L474 688 L474 626 L564 626 L564 253 Z " />
<glyph glyph-name="V" unicode="V" horiz-adv-x="734" d="M410 0 L661 626 L737 626 L737 688 L497 688 L497 626 L579 626 L384 127 C381 120 372 86 372 86 L365 86 C365 86 355 120 352 127 L158 626 L241 626 L241 688 L-3 688 L-3 626 L74 626 L324 0 L410 0 Z " />
<glyph glyph-name="W" unicode="W" horiz-adv-x="1016" d="M369 0 L502 531 C504 538 505 554 505 556 L511 556 C511 554 513 538 515 531 L643 0 L738 0 L940 626 L1017 626 L1017 688 L776 688 L776 626 L858 626 L708 127 C707 123 697 86 697 86 L690 86 C690 86 682 123 681 127 L542 688 L478 688 L335 127 C334 123 327 86 327 86 L320 86 C320 86 310 123 309 127 L161 626 L243 626 L243 688 L-1 688 L-1 626 L76 626 L276 0 L369 0 Z " />
<glyph glyph-name="X" unicode="X" horiz-adv-x="739" d="M278 0 L278 62 L192 62 L369 293 L545 62 L461 62 L461 0 L720 0 L720 62 L632 62 L418 340 L633 626 L720 626 L720 688 L461 688 L461 626 L547 626 L371 385 L192 626 L279 626 L279 688 L19 688 L19 626 L106 626 L320 340 L106 62 L19 62 L19 0 L278 0 Z " />
<glyph glyph-name="Y" unicode="Y" horiz-adv-x="675" d="M377 266 L599 626 L677 626 L677 688 L434 688 L434 626 L517 626 L342 336 L335 336 L164 626 L245 626 L245 688 L-1 688 L-1 626 L76 626 L299 266 L299 62 L208 62 L208 0 L468 0 L468 62 L377 62 L377 266 Z " />
<glyph glyph-name="Z" unicode="Z" horiz-adv-x="630" d="M578 0 L581 173 L520 173 L520 65 L149 65 L581 631 L581 688 L52 688 L50 515 L110 515 L110 623 L482 623 L49 57 L49 0 L578 0 Z " />
<glyph glyph-name="bracketleft" unicode="&#x5b;" horiz-adv-x="332" d="M306 -290 L306 -223 L163 -223 L163 698 L306 698 L306 765 L87 765 L87 -290 L306 -290 Z " />
<glyph glyph-name="backslash" unicode="&#x5c;" horiz-adv-x="384" d="M357 -80 L94 801 L27 781 L290 -100 L357 -80 Z " />
<glyph glyph-name="bracketright" unicode="&#x5d;" horiz-adv-x="333" d="M246 -290 L246 765 L28 765 L28 698 L171 698 L171 -223 L28 -223 L28 -290 L246 -290 Z " />
<glyph glyph-name="asciicircum" unicode="&#x5e;" horiz-adv-x="410" d="M297 568 L356 568 L252 755 L157 755 L54 568 L113 568 L205 692 L297 568 Z " />
<glyph glyph-name="underscore" unicode="&#x5f;" horiz-adv-x="544" d="M480 -90 L480 -20 L64 -20 L64 -90 L480 -90 Z " />
<glyph glyph-name="grave" unicode="&#x60;" horiz-adv-x="241" d="M163 536 L220 536 L126 719 L27 719 L163 536 Z " />
<glyph glyph-name="a" unicode="a" horiz-adv-x="533" d="M383 78 L392 0 L504 0 L504 62 L448 62 L448 296 C448 418 370 474 244 474 C111 474 51 403 51 335 L51 312 L120 312 L120 322 C120 374 161 413 242 413 C327 413 373 379 373 299 L373 260 L255 260 C124 260 42 215 42 128 C42 50 107 -7 203 -7 C340 -7 381 78 381 78 L383 78 Z M373 133 C373 133 327 52 219 52 C159 52 116 82 116 128 C116 182 178 206 260 206 L373 206 L373 133 Z " />
<glyph glyph-name="b" unicode="b" horiz-adv-x="570" d="M152 70 C152 70 199 -7 312 -7 C434 -7 527 76 527 234 C527 388 427 474 311 474 C197 474 155 410 155 410 L152 410 C152 410 155 440 155 444 L155 746 L11 746 L11 684 L80 684 L80 0 L137 0 L149 70 L152 70 Z M296 411 C371 411 452 356 452 234 C452 113 378 56 295 56 C238 56 180 83 155 134 L155 344 C169 365 210 411 296 411 L296 411 Z " />
<glyph glyph-name="c" unicode="c" horiz-adv-x="514" d="M275 411 C366 411 406 367 406 297 L406 282 L475 282 L475 307 C475 394 422 474 276 474 C133 474 44 396 44 234 C44 79 142 -7 281 -7 C413 -7 465 53 465 53 L439 107 C439 107 395 56 286 56 C197 56 118 112 118 234 C118 364 181 411 275 411 L275 411 Z " />
<glyph glyph-name="d" unicode="d" horiz-adv-x="585" d="M260 474 C143 474 43 388 43 234 C43 76 136 -7 259 -7 C372 -7 418 70 418 70 L422 70 L433 0 L559 0 L559 62 L490 62 L490 746 L343 746 L343 684 L415 684 L415 444 C415 440 418 410 418 410 L415 410 C415 410 379 474 260 474 L260 474 Z M276 56 C192 56 118 113 118 234 C118 356 200 411 275 411 C362 411 402 364 415 344 L415 134 C389 83 332 56 276 56 L276 56 Z " />
<glyph glyph-name="e" unicode="e" horiz-adv-x="522" d="M483 260 C483 379 399 474 278 474 C143 474 43 389 43 234 C43 79 143 -7 279 -7 C411 -7 465 53 465 53 L438 107 C438 107 395 56 287 56 C201 56 127 105 118 212 L478 212 C478 212 483 232 483 260 L483 260 Z M279 411 C341 411 411 370 413 268 L117 268 C125 362 196 411 279 411 L279 411 Z " />
<glyph glyph-name="f" unicode="f" horiz-adv-x="350" d="M285 0 L285 62 L182 62 L182 407 L331 407 L331 467 L182 467 L182 586 C182 658 216 691 274 691 C317 691 344 676 344 676 L344 739 C344 739 313 755 263 755 C165 755 107 699 107 587 L107 467 L36 467 L36 407 L107 407 L107 62 L38 62 L38 0 L285 0 Z " />
<glyph glyph-name="g" unicode="g" horiz-adv-x="586" d="M417 -44 C417 -175 338 -220 246 -220 C125 -220 83 -158 83 -158 L50 -210 C50 -210 108 -283 247 -283 C383 -283 491 -214 491 -44 L491 405 L560 405 L560 467 L434 467 L422 396 L419 396 C419 396 372 474 259 474 C137 474 44 391 44 233 C44 79 144 -7 260 -7 C368 -7 411 50 415 56 L419 56 C419 56 417 35 417 17 L417 -44 Z M275 56 C200 56 119 111 119 233 C119 354 193 411 276 411 C333 411 390 383 416 333 L416 122 C402 101 361 56 275 56 L275 56 Z " />
<glyph glyph-name="h" unicode="h" horiz-adv-x="593" d="M172 306 C172 306 194 409 310 409 C398 409 430 356 430 280 L430 0 L574 0 L574 62 L505 62 L505 292 C505 397 450 474 328 474 C193 474 169 386 169 386 L166 386 L171 474 L171 746 L27 746 L27 684 L97 684 L97 62 L28 62 L28 0 L239 0 L239 62 L172 62 L172 306 Z " />
<glyph glyph-name="i" unicode="i" horiz-adv-x="282" d="M203 654 C203 686 176 712 143 712 C111 712 85 686 85 654 C85 620 111 594 143 594 C176 594 203 620 203 654 L203 654 Z M184 467 L40 467 L40 405 L109 405 L109 62 L40 62 L40 0 L251 0 L251 62 L184 62 L184 467 Z " />
<glyph glyph-name="j" unicode="j" horiz-adv-x="256" d="M100 -84 C100 -156 55 -190 -6 -213 L19 -282 C98 -259 175 -202 175 -97 L175 467 L31 467 L31 405 L100 405 L100 -84 Z M195 654 C195 686 168 712 136 712 C103 712 77 686 77 654 C77 620 103 594 136 594 C168 594 195 620 195 654 L195 654 Z " />
<glyph glyph-name="k" unicode="k" horiz-adv-x="580" d="M172 746 L27 746 L27 684 L97 684 L97 62 L27 62 L27 0 L239 0 L239 62 L172 62 L172 213 L282 213 L446 0 L559 0 L559 60 L488 60 L345 242 L481 407 L553 407 L553 467 L342 467 L342 407 L400 407 L288 272 L172 272 L172 746 Z " />
<glyph glyph-name="l" unicode="l" horiz-adv-x="272" d="M174 746 L31 746 L31 684 L99 684 L99 62 L31 62 L31 0 L241 0 L241 62 L174 62 L174 746 Z " />
<glyph glyph-name="m" unicode="m" horiz-adv-x="918" d="M163 467 L37 467 L37 405 L106 405 L106 62 L37 62 L37 0 L247 0 L247 62 L181 62 L181 307 C183 316 208 410 318 410 C407 410 439 355 439 280 L439 0 L583 0 L583 62 L514 62 L514 292 C514 307 513 322 510 336 C526 366 562 410 637 410 C725 410 757 355 757 280 L757 0 L901 0 L901 62 L832 62 L832 292 C832 397 777 474 655 474 C541 474 504 410 495 387 C469 440 418 474 337 474 C199 474 173 377 173 377 L170 377 L163 467 Z " />
<glyph glyph-name="n" unicode="n" horiz-adv-x="601" d="M163 467 L37 467 L37 405 L106 405 L106 62 L37 62 L37 0 L247 0 L247 62 L181 62 L181 307 C183 317 208 410 318 410 C407 410 439 355 439 280 L439 0 L583 0 L583 62 L514 62 L514 292 C514 397 459 474 337 474 C199 474 173 377 173 377 L170 377 L163 467 Z " />
<glyph glyph-name="o" unicode="o" horiz-adv-x="551" d="M509 234 C509 389 406 474 276 474 C146 474 43 389 43 234 C43 79 140 -7 276 -7 C412 -7 509 79 509 234 L509 234 Z M276 56 C193 56 117 112 117 234 C117 356 200 411 276 411 C351 411 434 356 434 234 C434 112 358 56 276 56 L276 56 Z " />
<glyph glyph-name="p" unicode="p" horiz-adv-x="586" d="M96 -216 L26 -216 L26 -278 L251 -278 L251 -226 L170 -226 L170 23 C170 27 167 57 167 57 L169 57 C170 57 212 -7 326 -7 C442 -7 542 79 542 233 C542 391 449 474 327 474 C214 474 167 396 167 396 L164 396 L151 467 L26 467 L26 405 L96 405 L96 -216 Z M310 411 C394 411 468 354 468 233 C468 111 386 56 311 56 C225 56 185 100 171 121 L171 335 C197 384 254 411 310 411 L310 411 Z " />
<glyph glyph-name="q" unicode="q" horiz-adv-x="571" d="M419 397 C419 397 372 474 259 474 C137 474 44 391 44 233 C44 79 144 -7 260 -7 C374 -7 416 57 416 57 L419 57 C419 57 416 27 416 23 L416 -216 L334 -216 L334 -278 L560 -278 L560 -216 L491 -216 L491 467 L434 467 L422 397 L419 397 Z M275 56 C200 56 119 111 119 233 C119 354 193 411 276 411 C333 411 390 383 416 333 L416 122 C402 101 361 56 275 56 L275 56 Z " />
<glyph glyph-name="r" unicode="r" horiz-adv-x="387" d="M374 469 C362 471 344 474 323 474 C196 474 173 348 173 348 L170 348 L163 467 L37 467 L37 405 L106 405 L106 62 L37 62 L37 0 L257 0 L257 62 L181 62 L181 267 C181 267 205 405 321 405 C345 405 363 402 374 398 L374 469 Z " />
<glyph glyph-name="s" unicode="s" horiz-adv-x="477" d="M41 152 L41 123 C41 57 94 -7 238 -7 C378 -7 434 53 434 128 C434 220 349 247 261 264 C193 277 127 287 127 342 C127 391 182 413 236 413 C319 413 352 384 352 334 L352 312 L422 312 L422 346 C422 417 371 474 233 474 C129 474 53 423 53 343 C53 242 147 220 231 205 C298 193 360 177 360 129 C360 83 322 55 236 55 C151 55 111 93 111 141 L111 152 L41 152 Z " />
<glyph glyph-name="t" unicode="t" horiz-adv-x="345" d="M105 592 L92 467 L21 467 L21 407 L92 407 L92 151 C92 45 143 -7 233 -7 C291 -7 329 9 329 9 L329 72 C329 72 297 57 245 57 C196 57 167 89 167 155 L167 407 L315 407 L315 467 L167 467 L167 592 L105 592 Z " />
<glyph glyph-name="u" unicode="u" horiz-adv-x="592" d="M431 94 L439 0 L565 0 L565 62 L496 62 L496 467 L355 467 L355 405 L421 405 L421 160 C418 150 393 57 284 57 C195 57 163 112 163 187 L163 467 L20 467 L20 405 L88 405 L88 175 C88 70 143 -7 265 -7 C403 -7 429 94 429 94 L431 94 Z " />
<glyph glyph-name="v" unicode="v" horiz-adv-x="570" d="M327 0 L495 405 L563 405 L563 467 L362 467 L362 405 L420 405 L289 83 L283 83 L153 405 L209 405 L209 467 L7 467 L7 405 L75 405 L243 0 L327 0 Z " />
<glyph glyph-name="w" unicode="w" horiz-adv-x="787" d="M294 0 L391 362 L395 362 L493 0 L577 0 L711 405 L779 405 L779 467 L578 467 L578 405 L636 405 L537 83 L533 83 L429 467 L359 467 L257 83 L252 83 L153 405 L210 405 L210 467 L8 467 L8 405 L76 405 L210 0 L294 0 Z " />
<glyph glyph-name="x" unicode="x" horiz-adv-x="555" d="M225 0 L225 62 L165 62 L276 190 L386 62 L326 62 L326 0 L533 0 L533 62 L474 62 L323 236 L469 405 L533 405 L533 467 L331 467 L331 405 L386 405 L279 280 L174 405 L229 405 L229 467 L22 467 L22 405 L86 405 L232 234 L81 62 L22 62 L22 0 L225 0 Z " />
<glyph glyph-name="y" unicode="y" horiz-adv-x="568" d="M258 7 L252 -9 C215 -94 125 -177 24 -215 L48 -281 C201 -224 286 -105 321 -15 L494 405 L562 405 L562 467 L361 467 L361 405 L419 405 L288 83 L282 83 L152 405 L208 405 L208 467 L6 467 L6 405 L74 405 L241 7 L258 7 Z " />
<glyph glyph-name="z" unicode="z" horiz-adv-x="525" d="M477 0 L477 149 L420 149 L420 60 L137 60 L477 411 L477 467 L49 467 L49 320 L106 320 L106 407 L383 407 L49 66 L49 0 L477 0 Z " />
<glyph glyph-name="braceleft" unicode="&#x7b;" horiz-adv-x="312" d="M281 -221 L267 -221 C210 -221 185 -197 185 -135 L185 92 C185 181 119 224 119 224 L119 250 C119 250 185 294 185 383 L185 611 C185 673 210 699 267 699 L281 699 L281 765 L267 765 C183 765 109 729 109 612 L109 382 C109 305 61 265 37 265 L26 265 L26 210 L37 210 C61 210 109 168 109 93 L109 -136 C109 -253 183 -287 267 -287 L281 -287 L281 -221 Z " />
<glyph glyph-name="bar" unicode="&#x7c;" horiz-adv-x="241" d="M156 -286 L156 760 L84 760 L84 -286 L156 -286 Z " />
<glyph glyph-name="braceright" unicode="&#x7d;" horiz-adv-x="312" d="M31 -287 L44 -287 C129 -287 203 -253 203 -136 L203 93 C203 168 249 210 274 210 L285 210 L285 265 L274 265 C249 265 203 305 203 382 L203 612 C203 729 129 765 44 765 L31 765 L31 699 L44 699 C102 699 127 673 127 611 L127 383 C127 294 192 250 192 250 L192 224 C192 224 127 181 127 92 L127 -135 C127 -197 102 -221 44 -221 L31 -221 L31 -287 Z " />
<glyph glyph-name="asciitilde" unicode="&#x7e;" horiz-adv-x="499" d="M333 439 C388 439 418 476 432 516 L393 541 C372 515 355 502 328 502 C275 502 233 547 167 547 C112 547 82 510 68 470 L107 445 C128 471 145 484 172 484 C222 484 269 439 333 439 L333 439 Z " />
<glyph glyph-name="exclamdown" unicode="&#xa1;" horiz-adv-x="235" d="M86 295 L79 -288 L156 -288 L148 295 L86 295 Z M167 424 C167 451 144 474 117 474 C90 474 67 451 67 424 C67 396 90 374 117 374 C144 374 167 396 167 424 L167 424 Z " />
<glyph glyph-name="cent" unicode="&#xa2;" horiz-adv-x="537" d="M285 503 C379 503 419 457 419 387 L419 362 L487 362 L487 397 C487 477 441 552 318 562 L318 636 L257 636 L257 562 C129 552 51 474 51 324 C51 182 135 97 257 85 L257 -1 L318 -1 L318 84 C431 91 479 143 479 143 L451 197 C451 197 407 144 296 144 C206 144 125 202 125 324 C125 454 189 503 285 503 L285 503 Z " />
<glyph glyph-name="sterling" unicode="&#xa3;" horiz-adv-x="607" d="M451 197 L451 259 L258 259 C237 335 154 389 154 476 C154 585 230 625 314 625 C412 625 472 572 472 494 L472 477 L550 477 L550 504 C550 620 457 694 318 694 C172 694 75 614 75 482 C75 381 156 328 177 259 L56 259 L56 197 L180 197 C163 117 76 67 50 57 L50 0 L555 0 L555 61 L161 61 C205 85 248 140 260 197 L451 197 Z " />
<glyph glyph-name="currency" unicode="&#xa4;" horiz-adv-x="651" d="M583 81 L507 167 C548 211 573 273 573 348 C573 422 547 482 506 525 L583 613 L549 642 L472 555 C431 583 381 599 325 599 C270 599 218 583 177 554 L100 642 L67 613 L143 525 C103 483 78 422 78 348 C78 273 102 211 143 167 L67 81 L100 52 L176 138 C217 108 269 93 325 93 C381 93 432 109 473 138 L549 52 L583 81 Z M325 156 C233 156 153 230 153 347 C153 465 237 536 325 536 C414 536 497 465 497 347 C497 230 418 156 325 156 L325 156 Z " />
<glyph glyph-name="yen" unicode="&#xa5;" horiz-adv-x="733" d="M184 250 L184 188 L328 188 L328 62 L237 62 L237 0 L497 0 L497 62 L406 62 L406 188 L545 188 L545 250 L406 250 L406 266 L445 330 L579 330 L579 391 L483 391 L628 626 L706 626 L706 688 L463 688 L463 626 L546 626 L371 336 L364 336 L193 626 L274 626 L274 688 L28 688 L28 626 L105 626 L250 391 L152 391 L152 330 L288 330 L328 266 L328 250 L184 250 Z " />
<glyph glyph-name="brokenbar" unicode="&#xa6;" horiz-adv-x="244" d="M158 308 L158 760 L86 760 L86 308 L158 308 Z M158 -286 L158 168 L86 168 L86 -286 L158 -286 Z " />
<glyph glyph-name="section" unicode="&#xa7;" horiz-adv-x="561" d="M511 178 C511 431 134 339 134 514 C134 579 190 625 279 625 C377 625 412 568 412 506 L412 482 L489 482 L489 520 C489 622 417 694 278 694 C130 694 55 607 55 512 C55 443 84 401 125 372 C78 338 55 287 55 233 C55 -14 431 82 431 -107 C431 -178 381 -217 276 -217 C193 -217 137 -171 137 -98 L137 -71 L59 -71 L59 -113 C59 -202 125 -286 278 -286 C439 -286 511 -202 511 -101 C511 -33 484 10 444 40 C489 74 511 124 511 178 L511 178 Z M431 172 C431 123 407 95 371 79 C263 121 134 132 134 235 C134 279 160 314 205 333 C310 294 431 279 431 172 L431 172 Z " />
<glyph glyph-name="dieresis" unicode="&#xa8;" horiz-adv-x="308" d="M117 578 C117 604 96 625 70 625 C44 625 24 604 24 578 C24 552 44 531 70 531 C96 531 117 552 117 578 L117 578 Z M284 578 C284 604 262 625 236 625 C210 625 189 604 189 578 C189 552 210 531 236 531 C262 531 284 552 284 578 L284 578 Z " />
<glyph glyph-name="copyright" unicode="&#xa9;" horiz-adv-x="698" d="M646 348 C646 509 510 645 349 645 C188 645 52 509 52 348 C52 187 188 51 349 51 C510 51 646 187 646 348 L646 348 Z M611 348 C611 203 494 86 349 86 C204 86 87 203 87 348 C87 493 204 610 349 610 C494 610 611 493 611 348 L611 348 Z M455 282 C442 262 423 227 353 227 C291 227 237 267 237 352 C237 436 292 475 350 475 C417 475 442 440 454 419 L493 445 C483 464 445 527 350 527 C260 527 181 462 181 351 C181 240 260 175 350 175 C446 175 483 238 493 257 L455 282 Z " />
<glyph glyph-name="ordfeminine" unicode="&#xaa;" horiz-adv-x="383" d="M332 474 C332 474 327 471 317 471 C307 471 302 481 302 496 L302 615 C302 690 255 724 177 724 C98 724 62 683 62 642 L62 624 L108 624 L108 634 C108 662 131 680 176 680 C224 680 251 663 251 615 L251 592 L182 592 C102 592 50 565 50 512 C50 465 92 431 150 431 C229 431 257 480 257 480 L259 480 L259 477 C259 449 271 431 303 431 C325 431 332 436 332 436 L332 474 Z M251 518 C249 515 224 471 160 471 C125 471 101 490 101 516 C101 545 138 556 185 556 L251 556 L251 518 Z " />
<glyph glyph-name="guillemotleft" unicode="&#xab;" horiz-adv-x="477" d="M117 240 L243 389 L190 431 L49 266 L49 214 L190 49 L243 91 L117 240 Z M307 240 L433 389 L380 431 L239 266 L239 214 L380 49 L433 91 L307 240 Z " />
<glyph glyph-name="logicalnot" unicode="&#xac;" horiz-adv-x="615" d="M547 141 L547 388 L64 388 L64 325 L476 325 L476 141 L547 141 Z " />
<glyph glyph-name="registered" unicode="&#xae;" horiz-adv-x="698" d="M646 348 C646 509 510 645 349 645 C188 645 52 509 52 348 C52 187 188 51 349 51 C510 51 646 187 646 348 L646 348 Z M349 86 C204 86 87 203 87 348 C87 493 204 610 349 610 C494 610 611 493 611 348 C611 203 494 86 349 86 L349 86 Z M491 189 L491 229 L455 229 L419 297 C412 310 406 322 400 329 C444 340 469 371 469 416 C469 486 417 516 349 516 L212 516 L212 476 L250 476 L250 229 L212 229 L212 189 L339 189 L339 229 L294 229 L294 323 L357 323 L428 189 L491 189 Z M294 358 L294 475 L348 475 C393 475 421 453 421 413 C421 377 397 358 348 358 L294 358 Z " />
<glyph glyph-name="macron" unicode="&#xaf;" horiz-adv-x="390" d="M354 543 L354 606 L38 606 L38 543 L354 543 Z " />
<glyph glyph-name="degree" unicode="&#xb0;" horiz-adv-x="265" d="M132 414 C173 414 209 441 209 496 C209 542 175 576 132 576 C90 576 56 542 56 496 C56 441 92 414 132 414 L132 414 Z M132 449 C112 449 92 465 92 496 C92 524 110 541 132 541 C155 541 173 524 173 496 C173 465 153 449 132 449 L132 449 Z " />
<glyph glyph-name="plusminus" unicode="&#xb1;" horiz-adv-x="594" d="M523 65 L523 128 L71 128 L71 65 L523 65 Z M338 176 L338 349 L523 349 L523 412 L338 412 L338 589 L266 589 L266 412 L71 412 L71 349 L266 349 L266 176 L338 176 Z " />
<glyph glyph-name="twosuperior" unicode="&#xb2;" horiz-adv-x="386" d="M319 345 L319 401 L179 401 C180 402 320 463 320 577 C320 645 276 694 186 694 C96 694 59 643 59 594 L59 576 L118 576 L118 584 C118 609 139 635 186 635 C230 635 255 609 255 570 C255 473 70 390 70 390 L70 345 L319 345 Z " />
<glyph glyph-name="threesuperior" unicode="&#xb3;" horiz-adv-x="366" d="M250 520 C250 520 304 536 304 598 C304 646 270 694 181 694 C109 694 62 657 62 607 L62 588 L119 588 L119 597 C119 615 135 636 180 636 C221 636 239 612 239 592 C239 547 204 541 187 541 L145 541 L145 492 L191 492 C231 492 249 473 249 446 C249 417 224 396 177 396 C114 396 87 435 83 439 L49 397 C55 390 92 338 177 338 C262 338 314 379 314 441 C314 508 250 517 250 517 L250 520 Z " />
<glyph glyph-name="acute" unicode="&#xb4;" horiz-adv-x="285" d="M244 719 L146 719 L51 536 L109 536 L244 719 Z " />
<glyph glyph-name="mu" unicode="&#xb5;" horiz-adv-x="618" d="M177 -263 L177 18 C203 2 237 -7 279 -7 C417 -7 443 94 443 94 L445 94 L453 0 L579 0 L579 62 L510 62 L510 467 L369 467 L369 405 L435 405 L435 160 C432 150 407 57 298 57 C209 57 177 112 177 187 L177 467 L34 467 L34 405 L102 405 L103 -263 L177 -263 Z " />
<glyph glyph-name="paragraph" unicode="&#xb6;" horiz-adv-x="629" d="M449 -79 L508 -79 L508 626 L597 626 L597 688 L265 688 C131 688 30 615 30 475 C30 333 120 258 276 258 L325 258 L325 -79 L381 -79 L381 623 L449 623 L449 -79 Z " />
<glyph glyph-name="periodcentered" unicode="&#xb7;" horiz-adv-x="219" d="M157 288 C157 316 136 336 109 336 C83 336 61 316 61 288 C61 262 83 241 109 241 C136 241 157 262 157 288 L157 288 Z " />
<glyph glyph-name="cedilla" unicode="&#xb8;" horiz-adv-x="234" d="M112 -172 C169 -172 207 -146 207 -99 C207 -41 156 -30 132 -30 L151 9 L102 9 L73 -53 L91 -66 C91 -66 100 -60 115 -60 C142 -60 157 -75 157 -94 C157 -115 140 -128 110 -128 C77 -128 56 -105 55 -105 L27 -141 C27 -141 58 -172 112 -172 L112 -172 Z " />
<glyph glyph-name="onesuperior" unicode="&#xb9;" horiz-adv-x="344" d="M296 344 L296 398 L217 398 L217 687 L169 687 L55 614 L80 573 L159 616 L159 398 L69 398 L69 344 L296 344 Z " />
<glyph glyph-name="ordmasculine" unicode="&#xba;" horiz-adv-x="375" d="M328 576 C328 671 265 724 188 724 C109 724 48 671 48 576 C48 483 106 431 188 431 C270 431 328 483 328 576 L328 576 Z M188 475 C141 475 98 507 98 576 C98 648 145 679 188 679 C229 679 277 648 277 576 C277 507 233 475 188 475 L188 475 Z " />
<glyph glyph-name="guillemotright" unicode="&#xbb;" horiz-adv-x="477" d="M234 91 L286 49 L428 214 L428 266 L286 431 L234 389 L360 240 L234 91 Z M44 91 L96 49 L238 214 L238 266 L96 431 L44 389 L170 240 L44 91 Z " />
<glyph glyph-name="onequarter" unicode="&#xbc;" horiz-adv-x="727" d="M203 -30 L631 717 L579 748 L152 1 L203 -30 Z M648 0 L648 83 L691 83 L691 138 L648 138 L648 343 L577 343 L416 125 L416 83 L588 83 L588 0 L648 0 Z M588 136 L486 136 L588 273 L588 136 Z M282 344 L282 398 L205 398 L205 687 L154 687 L40 614 L65 569 L143 611 L143 398 L55 398 L55 344 L282 344 Z " />
<glyph glyph-name="onehalf" unicode="&#xbd;" horiz-adv-x="770" d="M203 -30 L631 717 L579 748 L152 1 L203 -30 Z M282 344 L282 398 L205 398 L205 687 L154 687 L40 614 L65 569 L143 611 L143 398 L55 398 L55 344 L282 344 Z M726 0 L726 56 L586 56 C587 57 727 118 727 232 C727 300 683 349 593 349 C503 349 466 298 466 249 L466 231 L525 231 L525 239 C525 264 546 290 593 290 C637 290 662 264 662 225 C662 128 477 45 477 45 L477 0 L726 0 Z " />
<glyph glyph-name="threequarters" unicode="&#xbe;" horiz-adv-x="730" d="M204 -30 L632 717 L580 748 L153 1 L204 -30 Z M650 0 L650 83 L692 83 L692 138 L650 138 L650 343 L578 343 L417 125 L417 83 L589 83 L589 0 L650 0 Z M589 136 L487 136 L589 273 L589 136 Z M239 520 C239 520 293 536 293 598 C293 646 259 694 170 694 C98 694 51 657 51 607 L51 588 L108 588 L108 597 C108 615 124 636 169 636 C210 636 228 612 228 592 C228 547 193 541 176 541 L134 541 L134 492 L180 492 C220 492 238 473 238 446 C238 417 213 396 166 396 C103 396 76 435 72 439 L38 397 C44 390 81 338 166 338 C251 338 303 379 303 441 C303 508 239 517 239 517 L239 520 Z " />
<glyph glyph-name="questiondown" unicode="&#xbf;" horiz-adv-x="502" d="M233 273 L233 169 C182 158 33 83 33 -73 C33 -196 109 -286 255 -286 C409 -286 473 -186 473 -92 L473 -67 L394 -67 L394 -75 C394 -153 352 -217 254 -217 C164 -217 113 -160 113 -75 C113 60 226 125 300 125 L300 273 L233 273 Z M216 424 C216 396 239 373 267 373 C295 373 316 396 316 424 C316 452 295 474 267 474 C239 474 216 452 216 424 L216 424 Z " />
<glyph glyph-name="Agrave" unicode="&#xc0;" horiz-adv-x="730" d="M353 732 L410 732 L316 915 L217 915 L353 732 Z M410 688 L214 688 L214 626 L297 626 L74 62 L-1 62 L-1 0 L235 0 L235 62 L153 62 L219 233 L511 233 L578 62 L495 62 L495 0 L736 0 L736 62 L659 62 L410 688 Z M348 562 C350 568 362 602 362 602 L369 602 C369 602 381 568 383 562 L485 299 L245 299 L348 562 Z " />
<glyph glyph-name="Aacute" unicode="&#xc1;" horiz-adv-x="730" d="M512 914 L414 914 L319 731 L377 731 L512 914 Z M410 688 L214 688 L214 626 L297 626 L74 62 L-1 62 L-1 0 L235 0 L235 62 L153 62 L219 233 L511 233 L578 62 L495 62 L495 0 L736 0 L736 62 L659 62 L410 688 Z M348 562 C350 568 362 602 362 602 L369 602 C369 602 381 568 383 562 L485 299 L245 299 L348 562 Z " />
<glyph glyph-name="Acircumflex" unicode="&#xc2;" horiz-adv-x="730" d="M454 732 L511 732 L409 915 L313 915 L211 732 L268 732 L361 856 L454 732 Z M410 688 L214 688 L214 626 L297 626 L74 62 L-1 62 L-1 0 L235 0 L235 62 L153 62 L219 233 L511 233 L578 62 L495 62 L495 0 L736 0 L736 62 L659 62 L410 688 Z M348 562 C350 568 362 602 362 602 L369 602 C369 602 381 568 383 562 L485 299 L245 299 L348 562 Z " />
<glyph glyph-name="Atilde" unicode="&#xc3;" horiz-adv-x="730" d="M453 728 C508 728 538 765 552 805 L513 830 C491 804 475 791 448 791 C395 791 352 836 287 836 C232 836 202 799 188 759 L227 734 C248 760 265 773 292 773 C342 773 389 728 453 728 L453 728 Z M410 688 L214 688 L214 626 L297 626 L74 62 L-1 62 L-1 0 L235 0 L235 62 L153 62 L219 233 L511 233 L578 62 L495 62 L495 0 L736 0 L736 62 L659 62 L410 688 Z M348 562 C350 568 362 602 362 602 L369 602 C369 602 381 568 383 562 L485 299 L245 299 L348 562 Z " />
<glyph glyph-name="Adieresis" unicode="&#xc4;" horiz-adv-x="730" d="M331 776 C331 802 310 823 284 823 C258 823 238 802 238 776 C238 750 258 729 284 729 C310 729 331 750 331 776 L331 776 Z M498 776 C498 802 476 823 450 823 C424 823 403 802 403 776 C403 750 424 729 450 729 C476 729 498 750 498 776 L498 776 Z M410 688 L214 688 L214 626 L297 626 L74 62 L-1 62 L-1 0 L235 0 L235 62 L153 62 L219 233 L511 233 L578 62 L495 62 L495 0 L736 0 L736 62 L659 62 L410 688 Z M348 562 C350 568 362 602 362 602 L369 602 C369 602 381 568 383 562 L485 299 L245 299 L348 562 Z " />
<glyph glyph-name="Aring" unicode="&#xc5;" horiz-adv-x="730" d="M451 813 C451 862 411 902 362 902 C313 902 273 862 273 813 C273 764 313 724 362 724 C411 724 451 764 451 813 L451 813 Z M402 813 C402 790 385 773 362 773 C339 773 322 790 322 813 C322 835 339 853 362 853 C385 853 402 835 402 813 L402 813 Z M410 688 L214 688 L214 626 L297 626 L74 62 L-1 62 L-1 0 L235 0 L235 62 L153 62 L219 233 L511 233 L578 62 L495 62 L495 0 L736 0 L736 62 L659 62 L410 688 Z M348 562 C350 568 362 602 362 602 L369 602 C369 602 381 568 383 562 L485 299 L245 299 L348 562 Z " />
<glyph glyph-name="AE" unicode="&#xc6;" horiz-adv-x="992" d="M937 0 L940 172 L879 172 L869 65 L577 65 L577 315 L831 315 L831 381 L577 381 L577 623 L870 623 L879 515 L941 515 L938 688 L265 688 L265 636 L342 627 L69 62 L-6 52 L-6 0 L231 0 L231 52 L148 62 C148 62 187 138 234 233 L500 233 L500 62 L411 52 L411 0 L937 0 Z M421 625 L500 625 L500 299 L267 299 L421 625 Z " />
<glyph glyph-name="Ccedilla" unicode="&#xc7;" horiz-adv-x="658" d="M337 -172 C394 -172 432 -146 432 -99 C432 -41 381 -30 357 -30 L368 -6 C523 0 609 77 609 202 L609 212 L530 212 C530 104 461 62 353 62 C221 62 128 135 128 339 C128 545 220 625 353 625 C452 625 535 569 535 463 L535 440 L612 440 L612 472 C612 607 505 694 350 694 C168 694 48 581 48 340 C48 116 154 5 320 -6 L298 -53 L316 -66 C316 -66 325 -60 340 -60 C367 -60 382 -75 382 -94 C382 -115 365 -128 335 -128 C302 -128 281 -105 280 -105 L252 -141 C252 -141 283 -172 337 -172 L337 -172 Z " />
<glyph glyph-name="Egrave" unicode="&#xc8;" horiz-adv-x="625" d="M341 731 L398 731 L304 914 L205 914 L341 731 Z M570 0 L573 172 L512 172 L512 65 L210 65 L210 315 L464 315 L464 381 L210 381 L210 623 L511 623 L511 515 L574 515 L571 688 L44 688 L44 626 L133 626 L133 62 L44 62 L44 0 L570 0 Z " />
<glyph glyph-name="Eacute" unicode="&#xc9;" horiz-adv-x="625" d="M455 914 L357 914 L262 731 L320 731 L455 914 Z M570 0 L573 172 L512 172 L512 65 L210 65 L210 315 L464 315 L464 381 L210 381 L210 623 L511 623 L511 515 L574 515 L571 688 L44 688 L44 626 L133 626 L133 62 L44 62 L44 0 L570 0 Z " />
<glyph glyph-name="Ecircumflex" unicode="&#xca;" horiz-adv-x="625" d="M423 731 L480 731 L378 914 L282 914 L180 731 L237 731 L330 855 L423 731 Z M570 0 L573 172 L512 172 L512 65 L210 65 L210 315 L464 315 L464 381 L210 381 L210 623 L511 623 L511 515 L574 515 L571 688 L44 688 L44 626 L133 626 L133 62 L44 62 L44 0 L570 0 Z " />
<glyph glyph-name="Edieresis" unicode="&#xcb;" horiz-adv-x="625" d="M303 776 C303 802 282 823 256 823 C230 823 210 802 210 776 C210 750 230 729 256 729 C282 729 303 750 303 776 L303 776 Z M470 776 C470 802 448 823 422 823 C396 823 375 802 375 776 C375 750 396 729 422 729 C448 729 470 750 470 776 L470 776 Z M570 0 L573 172 L512 172 L512 65 L210 65 L210 315 L464 315 L464 381 L210 381 L210 623 L511 623 L511 515 L574 515 L571 688 L44 688 L44 626 L133 626 L133 62 L44 62 L44 0 L570 0 Z " />
<glyph glyph-name="Igrave" unicode="&#xcc;" horiz-adv-x="344" d="M152 732 L209 732 L115 915 L16 915 L152 732 Z M301 0 L301 62 L210 62 L210 626 L301 626 L301 688 L44 688 L44 626 L133 626 L133 62 L44 62 L44 0 L301 0 Z " />
<glyph glyph-name="Iacute" unicode="&#xcd;" horiz-adv-x="344" d="M308 914 L210 914 L115 731 L173 731 L308 914 Z M301 0 L301 62 L210 62 L210 626 L301 626 L301 688 L44 688 L44 626 L133 626 L133 62 L44 62 L44 0 L301 0 Z " />
<glyph glyph-name="Icircumflex" unicode="&#xce;" horiz-adv-x="344" d="M262 732 L319 732 L217 915 L121 915 L19 732 L76 732 L169 856 L262 732 Z M301 0 L301 62 L210 62 L210 626 L301 626 L301 688 L44 688 L44 626 L133 626 L133 62 L44 62 L44 0 L301 0 Z " />
<glyph glyph-name="Idieresis" unicode="&#xcf;" horiz-adv-x="344" d="M139 776 C139 802 118 823 92 823 C66 823 46 802 46 776 C46 750 66 729 92 729 C118 729 139 750 139 776 L139 776 Z M306 776 C306 802 284 823 258 823 C232 823 211 802 211 776 C211 750 232 729 258 729 C284 729 306 750 306 776 L306 776 Z M301 0 L301 62 L210 62 L210 626 L301 626 L301 688 L44 688 L44 626 L133 626 L133 62 L44 62 L44 0 L301 0 Z " />
<glyph glyph-name="Eth" unicode="&#xd0;" horiz-adv-x="729" d="M51 316 L134 316 L134 62 L45 62 L45 0 L342 0 C550 0 680 103 680 341 C680 581 550 688 328 688 L45 688 L45 626 L134 626 L134 378 L51 378 L51 316 Z M211 65 L211 316 L380 316 L380 378 L211 378 L211 623 L318 623 C522 623 601 520 601 341 C601 164 523 65 331 65 L211 65 Z " />
<glyph glyph-name="Ntilde" unicode="&#xd1;" horiz-adv-x="818" d="M499 733 C554 733 584 770 598 810 L559 835 C537 809 521 796 494 796 C441 796 398 841 333 841 C278 841 248 804 234 764 L273 739 C294 765 311 778 338 778 C388 778 435 733 499 733 L499 733 Z M693 0 L693 626 L783 626 L783 688 L526 688 L526 626 L616 626 L616 111 L612 111 L217 688 L44 688 L44 626 L133 626 L133 62 L44 62 L44 0 L301 0 L301 62 L210 62 L210 565 L213 565 L601 0 L693 0 Z " />
<glyph glyph-name="Ograve" unicode="&#xd2;" horiz-adv-x="706" d="M656 339 C656 580 537 694 353 694 C170 694 51 580 51 339 C51 103 170 -7 353 -7 C537 -7 656 103 656 339 L656 339 Z M131 339 C131 545 222 625 353 625 C484 625 576 545 576 339 C576 134 484 62 353 62 C222 62 131 134 131 339 L131 339 Z M356 731 L413 731 L319 914 L220 914 L356 731 Z " />
<glyph glyph-name="Oacute" unicode="&#xd3;" horiz-adv-x="706" d="M482 914 L384 914 L289 731 L347 731 L482 914 Z M656 339 C656 580 537 694 353 694 C170 694 51 580 51 339 C51 103 170 -7 353 -7 C537 -7 656 103 656 339 L656 339 Z M131 339 C131 545 222 625 353 625 C484 625 576 545 576 339 C576 134 484 62 353 62 C222 62 131 134 131 339 L131 339 Z " />
<glyph glyph-name="Ocircumflex" unicode="&#xd4;" horiz-adv-x="706" d="M450 731 L507 731 L405 914 L309 914 L207 731 L264 731 L357 855 L450 731 Z M656 339 C656 580 537 694 353 694 C170 694 51 580 51 339 C51 103 170 -7 353 -7 C537 -7 656 103 656 339 L656 339 Z M131 339 C131 545 222 625 353 625 C484 625 576 545 576 339 C576 134 484 62 353 62 C222 62 131 134 131 339 L131 339 Z " />
<glyph glyph-name="Otilde" unicode="&#xd5;" horiz-adv-x="706" d="M656 339 C656 580 537 694 353 694 C170 694 51 580 51 339 C51 103 170 -7 353 -7 C537 -7 656 103 656 339 L656 339 Z M131 339 C131 545 222 625 353 625 C484 625 576 545 576 339 C576 134 484 62 353 62 C222 62 131 134 131 339 L131 339 Z M432 733 C487 733 517 770 531 810 L492 835 C470 809 454 796 427 796 C374 796 331 841 266 841 C211 841 181 804 167 764 L206 739 C227 765 244 778 271 778 C321 778 368 733 432 733 L432 733 Z " />
<glyph glyph-name="Odieresis" unicode="&#xd6;" horiz-adv-x="706" d="M314 775 C314 801 293 822 267 822 C241 822 221 801 221 775 C221 749 241 728 267 728 C293 728 314 749 314 775 L314 775 Z M481 775 C481 801 459 822 433 822 C407 822 386 801 386 775 C386 749 407 728 433 728 C459 728 481 749 481 775 L481 775 Z M656 339 C656 580 537 694 353 694 C170 694 51 580 51 339 C51 103 170 -7 353 -7 C537 -7 656 103 656 339 L656 339 Z M131 339 C131 545 222 625 353 625 C484 625 576 545 576 339 C576 134 484 62 353 62 C222 62 131 134 131 339 L131 339 Z " />
<glyph glyph-name="multiply" unicode="&#xd7;" horiz-adv-x="525" d="M94 31 L263 201 L432 31 L474 73 L305 244 L474 415 L432 457 L263 286 L94 457 L51 415 L220 244 L51 73 L94 31 Z " />
<glyph glyph-name="Oslash" unicode="&#xd8;" horiz-adv-x="706" d="M656 339 C656 485 612 584 537 640 L565 698 L501 729 L474 674 C438 687 397 694 353 694 C170 694 51 580 51 339 C51 197 93 101 167 47 L136 -18 L200 -49 L230 13 C267 0 308 -7 353 -7 C537 -7 656 103 656 339 L656 339 Z M576 339 C576 134 484 62 353 62 C319 62 289 66 261 77 L503 570 C549 525 576 451 576 339 L576 339 Z M131 339 C131 545 222 625 353 625 C385 625 415 620 442 609 L201 115 C157 158 131 229 131 339 L131 339 Z " />
<glyph glyph-name="Ugrave" unicode="&#xd9;" horiz-adv-x="757" d="M392 731 L449 731 L355 914 L256 914 L392 731 Z M564 253 C564 139 512 62 380 62 C240 62 195 145 195 259 L195 626 L286 626 L286 688 L28 688 L28 626 L118 626 L118 258 C118 82 210 -7 380 -7 C548 -7 639 82 639 258 L639 626 L730 626 L730 688 L474 688 L474 626 L564 626 L564 253 Z " />
<glyph glyph-name="Uacute" unicode="&#xda;" horiz-adv-x="757" d="M495 943 L397 943 L302 760 L360 760 L495 943 Z M564 253 C564 139 512 62 380 62 C240 62 195 145 195 259 L195 626 L286 626 L286 688 L28 688 L28 626 L118 626 L118 258 C118 82 210 -7 380 -7 C548 -7 639 82 639 258 L639 626 L730 626 L730 688 L474 688 L474 626 L564 626 L564 253 Z " />
<glyph glyph-name="Ucircumflex" unicode="&#xdb;" horiz-adv-x="757" d="M464 762 L521 762 L419 945 L323 945 L221 762 L278 762 L371 886 L464 762 Z M564 253 C564 139 512 62 380 62 C240 62 195 145 195 259 L195 626 L286 626 L286 688 L28 688 L28 626 L118 626 L118 258 C118 82 210 -7 380 -7 C548 -7 639 82 639 258 L639 626 L730 626 L730 688 L474 688 L474 626 L564 626 L564 253 Z " />
<glyph glyph-name="Udieresis" unicode="&#xdc;" horiz-adv-x="757" d="M346 778 C346 804 325 825 299 825 C273 825 253 804 253 778 C253 752 273 731 299 731 C325 731 346 752 346 778 L346 778 Z M513 778 C513 804 491 825 465 825 C439 825 418 804 418 778 C418 752 439 731 465 731 C491 731 513 752 513 778 L513 778 Z M564 253 C564 139 512 62 380 62 C240 62 195 145 195 259 L195 626 L286 626 L286 688 L28 688 L28 626 L118 626 L118 258 C118 82 210 -7 380 -7 C548 -7 639 82 639 258 L639 626 L730 626 L730 688 L474 688 L474 626 L564 626 L564 253 Z " />
<glyph glyph-name="Yacute" unicode="&#xdd;" horiz-adv-x="675" d="M451 945 L353 945 L258 762 L316 762 L451 945 Z M377 266 L599 626 L677 626 L677 688 L434 688 L434 626 L517 626 L342 336 L335 336 L164 626 L245 626 L245 688 L-1 688 L-1 626 L76 626 L299 266 L299 62 L208 62 L208 0 L468 0 L468 62 L377 62 L377 266 Z " />
<glyph glyph-name="Thorn" unicode="&#xde;" horiz-adv-x="621" d="M210 688 L44 688 L44 626 L133 626 L133 62 L44 62 L44 0 L322 0 L322 62 L210 62 L210 163 L341 163 C498 163 588 237 588 380 C588 519 486 593 353 593 L210 593 L210 688 Z M338 527 C428 527 510 487 510 379 C510 272 443 229 337 229 L210 229 L210 527 L338 527 Z " />
<glyph glyph-name="germandbls" unicode="&#xdf;" horiz-adv-x="624" d="M290 28 C290 28 340 -7 413 -7 C515 -7 589 43 589 133 C589 301 420 290 420 373 C420 443 516 455 516 579 C516 682 438 755 312 755 C185 755 96 680 96 525 L96 62 L26 62 L26 0 L234 0 L234 62 L171 62 L171 521 C171 636 229 692 314 692 C409 692 442 630 442 570 C442 468 346 458 346 370 C346 247 514 268 514 142 C514 96 475 56 403 56 C337 56 302 88 302 88 L290 28 Z " />
<glyph glyph-name="agrave" unicode="&#xe0;" horiz-adv-x="533" d="M383 78 L392 0 L504 0 L504 62 L448 62 L448 296 C448 418 370 474 244 474 C111 474 51 403 51 335 L51 312 L120 312 L120 322 C120 374 161 413 242 413 C327 413 373 379 373 299 L373 260 L255 260 C124 260 42 215 42 128 C42 50 107 -7 203 -7 C340 -7 381 78 381 78 L383 78 Z M373 133 C373 133 327 52 219 52 C159 52 116 82 116 128 C116 182 178 206 260 206 L373 206 L373 133 Z M274 536 L331 536 L237 719 L138 719 L274 536 Z " />
<glyph glyph-name="aacute" unicode="&#xe1;" horiz-adv-x="533" d="M383 78 L392 0 L504 0 L504 62 L448 62 L448 296 C448 418 370 474 244 474 C111 474 51 403 51 335 L51 312 L120 312 L120 322 C120 374 161 413 242 413 C327 413 373 379 373 299 L373 260 L255 260 C124 260 42 215 42 128 C42 50 107 -7 203 -7 C340 -7 381 78 381 78 L383 78 Z M373 133 C373 133 327 52 219 52 C159 52 116 82 116 128 C116 182 178 206 260 206 L373 206 L373 133 Z M408 719 L310 719 L215 536 L273 536 L408 719 Z " />
<glyph glyph-name="acircumflex" unicode="&#xe2;" horiz-adv-x="533" d="M383 78 L392 0 L504 0 L504 62 L448 62 L448 296 C448 418 370 474 244 474 C111 474 51 403 51 335 L51 312 L120 312 L120 322 C120 374 161 413 242 413 C327 413 373 379 373 299 L373 260 L255 260 C124 260 42 215 42 128 C42 50 107 -7 203 -7 C340 -7 381 78 381 78 L383 78 Z M373 133 C373 133 327 52 219 52 C159 52 116 82 116 128 C116 182 178 206 260 206 L373 206 L373 133 Z M363 536 L420 536 L318 719 L222 719 L120 536 L177 536 L270 660 L363 536 Z " />
<glyph glyph-name="atilde" unicode="&#xe3;" horiz-adv-x="533" d="M383 78 L392 0 L504 0 L504 62 L448 62 L448 296 C448 418 370 474 244 474 C111 474 51 403 51 335 L51 312 L120 312 L120 322 C120 374 161 413 242 413 C327 413 373 379 373 299 L373 260 L255 260 C124 260 42 215 42 128 C42 50 107 -7 203 -7 C340 -7 381 78 381 78 L383 78 Z M373 133 C373 133 327 52 219 52 C159 52 116 82 116 128 C116 182 178 206 260 206 L373 206 L373 133 Z M352 525 C407 525 437 562 451 602 L412 627 C390 601 374 588 347 588 C294 588 251 633 186 633 C131 633 101 596 87 556 L126 531 C147 557 164 570 191 570 C241 570 288 525 352 525 L352 525 Z " />
<glyph glyph-name="adieresis" unicode="&#xe4;" horiz-adv-x="533" d="M383 78 L392 0 L504 0 L504 62 L448 62 L448 296 C448 418 370 474 244 474 C111 474 51 403 51 335 L51 312 L120 312 L120 322 C120 374 161 413 242 413 C327 413 373 379 373 299 L373 260 L255 260 C124 260 42 215 42 128 C42 50 107 -7 203 -7 C340 -7 381 78 381 78 L383 78 Z M373 133 C373 133 327 52 219 52 C159 52 116 82 116 128 C116 182 178 206 260 206 L373 206 L373 133 Z M397 578 C397 604 375 625 349 625 C323 625 302 604 302 578 C302 552 323 531 349 531 C375 531 397 552 397 578 L397 578 Z M230 578 C230 604 209 625 183 625 C157 625 137 604 137 578 C137 552 157 531 183 531 C209 531 230 552 230 578 L230 578 Z " />
<glyph glyph-name="aring" unicode="&#xe5;" horiz-adv-x="533" d="M383 78 L392 0 L504 0 L504 62 L448 62 L448 296 C448 418 370 474 244 474 C111 474 51 403 51 335 L51 312 L120 312 L120 322 C120 374 161 413 242 413 C327 413 373 379 373 299 L373 260 L255 260 C124 260 42 215 42 128 C42 50 107 -7 203 -7 C340 -7 381 78 381 78 L383 78 Z M373 133 C373 133 327 52 219 52 C159 52 116 82 116 128 C116 182 178 206 260 206 L373 206 L373 133 Z M354 615 C354 664 314 704 265 704 C216 704 176 664 176 615 C176 566 216 526 265 526 C314 526 354 566 354 615 L354 615 Z M305 615 C305 592 288 575 265 575 C242 575 225 592 225 615 C225 637 242 655 265 655 C288 655 305 637 305 615 L305 615 Z " />
<glyph glyph-name="ae" unicode="&#xe6;" horiz-adv-x="844" d="M805 260 C805 379 721 474 600 474 C527 474 464 446 424 394 C392 448 329 474 244 474 C111 474 51 403 51 335 L51 312 L120 312 L120 322 C120 374 161 413 242 413 C327 413 373 379 373 299 L373 260 L255 260 C124 260 42 215 42 128 C42 50 107 -7 203 -7 C366 -7 411 98 411 98 L412 98 C451 33 520 -7 601 -7 C733 -7 787 53 787 53 L760 107 C760 107 717 56 609 56 C529 56 459 105 450 212 L800 212 C800 212 805 232 805 260 L805 260 Z M373 133 C373 133 327 52 219 52 C159 52 116 82 116 128 C116 182 178 206 260 206 L373 206 L373 133 Z M601 411 C663 411 733 370 735 268 L449 268 C457 362 524 411 601 411 L601 411 Z " />
<glyph glyph-name="ccedilla" unicode="&#xe7;" horiz-adv-x="513" d="M261 -172 C318 -172 356 -146 356 -99 C356 -41 305 -30 281 -30 L292 -7 C416 -4 465 53 465 53 L439 107 C439 107 395 56 286 56 C197 56 118 112 118 234 C118 364 181 411 275 411 C366 411 406 367 406 297 L406 282 L475 282 L475 307 C475 394 422 474 276 474 C133 474 44 396 44 234 C44 93 125 9 244 -5 L222 -53 L240 -66 C240 -66 249 -60 264 -60 C291 -60 306 -75 306 -94 C306 -115 289 -128 259 -128 C226 -128 205 -105 204 -105 L176 -141 C176 -141 207 -172 261 -172 L261 -172 Z " />
<glyph glyph-name="egrave" unicode="&#xe8;" horiz-adv-x="522" d="M483 260 C483 379 399 474 278 474 C143 474 43 389 43 234 C43 79 143 -7 279 -7 C411 -7 465 53 465 53 L438 107 C438 107 395 56 287 56 C201 56 127 105 118 212 L478 212 C478 212 483 232 483 260 L483 260 Z M279 411 C341 411 411 370 413 268 L117 268 C125 362 196 411 279 411 L279 411 Z M270 536 L327 536 L233 719 L134 719 L270 536 Z " />
<glyph glyph-name="eacute" unicode="&#xe9;" horiz-adv-x="522" d="M394 719 L296 719 L201 536 L259 536 L394 719 Z M483 260 C483 379 399 474 278 474 C143 474 43 389 43 234 C43 79 143 -7 279 -7 C411 -7 465 53 465 53 L438 107 C438 107 395 56 287 56 C201 56 127 105 118 212 L478 212 C478 212 483 232 483 260 L483 260 Z M279 411 C341 411 411 370 413 268 L117 268 C125 362 196 411 279 411 L279 411 Z " />
<glyph glyph-name="ecircumflex" unicode="&#xea;" horiz-adv-x="522" d="M360 536 L417 536 L315 719 L219 719 L117 536 L174 536 L267 660 L360 536 Z M483 260 C483 379 399 474 278 474 C143 474 43 389 43 234 C43 79 143 -7 279 -7 C411 -7 465 53 465 53 L438 107 C438 107 395 56 287 56 C201 56 127 105 118 212 L478 212 C478 212 483 232 483 260 L483 260 Z M279 411 C341 411 411 370 413 268 L117 268 C125 362 196 411 279 411 L279 411 Z " />
<glyph glyph-name="edieresis" unicode="&#xeb;" horiz-adv-x="522" d="M231 578 C231 604 210 625 184 625 C158 625 138 604 138 578 C138 552 158 531 184 531 C210 531 231 552 231 578 L231 578 Z M398 578 C398 604 376 625 350 625 C324 625 303 604 303 578 C303 552 324 531 350 531 C376 531 398 552 398 578 L398 578 Z M483 260 C483 379 399 474 278 474 C143 474 43 389 43 234 C43 79 143 -7 279 -7 C411 -7 465 53 465 53 L438 107 C438 107 395 56 287 56 C201 56 127 105 118 212 L478 212 C478 212 483 232 483 260 L483 260 Z M279 411 C341 411 411 370 413 268 L117 268 C125 362 196 411 279 411 L279 411 Z " />
<glyph glyph-name="igrave" unicode="&#xec;" horiz-adv-x="283" d="M89 531 L146 531 L52 714 L-47 714 L89 531 Z M184 467 L40 467 L40 405 L109 405 L109 62 L40 62 L40 0 L251 0 L251 62 L184 62 L184 467 Z " />
<glyph glyph-name="iacute" unicode="&#xed;" horiz-adv-x="283" d="M298 719 L200 719 L105 536 L163 536 L298 719 Z M184 467 L40 467 L40 405 L109 405 L109 62 L40 62 L40 0 L251 0 L251 62 L184 62 L184 467 Z " />
<glyph glyph-name="icircumflex" unicode="&#xee;" horiz-adv-x="283" d="M237 536 L294 536 L192 719 L96 719 L-6 536 L51 536 L144 660 L237 536 Z M184 467 L40 467 L40 405 L109 405 L109 62 L40 62 L40 0 L251 0 L251 62 L184 62 L184 467 Z " />
<glyph glyph-name="idieresis" unicode="&#xef;" horiz-adv-x="283" d="M112 578 C112 604 91 625 65 625 C39 625 19 604 19 578 C19 552 39 531 65 531 C91 531 112 552 112 578 L112 578 Z M279 578 C279 604 257 625 231 625 C205 625 184 604 184 578 C184 552 205 531 231 531 C257 531 279 552 279 578 L279 578 Z M184 467 L40 467 L40 405 L109 405 L109 62 L40 62 L40 0 L251 0 L251 62 L184 62 L184 467 Z " />
<glyph glyph-name="eth" unicode="&#xf0;" horiz-adv-x="621" d="M456 671 L420 712 L360 662 C307 690 247 707 185 707 L143 639 C197 639 250 629 297 609 L237 558 L272 517 L349 581 C419 536 471 463 482 363 C454 385 388 426 277 426 C125 426 45 338 45 213 C45 87 137 -7 288 -7 C451 -7 565 92 565 320 C565 451 502 562 409 631 L456 671 Z M288 62 C181 62 121 127 121 214 C121 294 185 357 287 357 C403 357 470 299 484 286 C475 129 400 62 288 62 L288 62 Z " />
<glyph glyph-name="ntilde" unicode="&#xf1;" horiz-adv-x="601" d="M395 525 C450 525 480 562 494 602 L455 627 C433 601 417 588 390 588 C337 588 294 633 229 633 C174 633 144 596 130 556 L169 531 C190 557 207 570 234 570 C284 570 331 525 395 525 L395 525 Z M163 467 L37 467 L37 405 L106 405 L106 62 L37 62 L37 0 L247 0 L247 62 L181 62 L181 307 C183 317 208 410 318 410 C407 410 439 355 439 280 L439 0 L583 0 L583 62 L514 62 L514 292 C514 397 459 474 337 474 C199 474 173 377 173 377 L170 377 L163 467 Z " />
<glyph glyph-name="ograve" unicode="&#xf2;" horiz-adv-x="551" d="M509 234 C509 389 406 474 276 474 C146 474 43 389 43 234 C43 79 140 -7 276 -7 C412 -7 509 79 509 234 L509 234 Z M276 56 C193 56 117 112 117 234 C117 356 200 411 276 411 C351 411 434 356 434 234 C434 112 358 56 276 56 L276 56 Z M276 536 L333 536 L239 719 L140 719 L276 536 Z " />
<glyph glyph-name="oacute" unicode="&#xf3;" horiz-adv-x="551" d="M402 719 L304 719 L209 536 L267 536 L402 719 Z M509 234 C509 389 406 474 276 474 C146 474 43 389 43 234 C43 79 140 -7 276 -7 C412 -7 509 79 509 234 L509 234 Z M276 56 C193 56 117 112 117 234 C117 356 200 411 276 411 C351 411 434 356 434 234 C434 112 358 56 276 56 L276 56 Z " />
<glyph glyph-name="ocircumflex" unicode="&#xf4;" horiz-adv-x="551" d="M367 536 L424 536 L322 719 L226 719 L124 536 L181 536 L274 660 L367 536 Z M509 234 C509 389 406 474 276 474 C146 474 43 389 43 234 C43 79 140 -7 276 -7 C412 -7 509 79 509 234 L509 234 Z M276 56 C193 56 117 112 117 234 C117 356 200 411 276 411 C351 411 434 356 434 234 C434 112 358 56 276 56 L276 56 Z " />
<glyph glyph-name="otilde" unicode="&#xf5;" horiz-adv-x="551" d="M509 234 C509 389 406 474 276 474 C146 474 43 389 43 234 C43 79 140 -7 276 -7 C412 -7 509 79 509 234 L509 234 Z M276 56 C193 56 117 112 117 234 C117 356 200 411 276 411 C351 411 434 356 434 234 C434 112 358 56 276 56 L276 56 Z M356 525 C411 525 441 562 455 602 L416 627 C394 601 378 588 351 588 C298 588 255 633 190 633 C135 633 105 596 91 556 L130 531 C151 557 168 570 195 570 C245 570 292 525 356 525 L356 525 Z " />
<glyph glyph-name="odieresis" unicode="&#xf6;" horiz-adv-x="551" d="M232 578 C232 604 211 625 185 625 C159 625 139 604 139 578 C139 552 159 531 185 531 C211 531 232 552 232 578 L232 578 Z M399 578 C399 604 377 625 351 625 C325 625 304 604 304 578 C304 552 325 531 351 531 C377 531 399 552 399 578 L399 578 Z M509 234 C509 389 406 474 276 474 C146 474 43 389 43 234 C43 79 140 -7 276 -7 C412 -7 509 79 509 234 L509 234 Z M276 56 C193 56 117 112 117 234 C117 356 200 411 276 411 C351 411 434 356 434 234 C434 112 358 56 276 56 L276 56 Z " />
<glyph glyph-name="divide" unicode="&#xf7;" horiz-adv-x="564" d="M333 107 C333 134 311 154 285 154 C258 154 237 134 237 107 C237 80 258 59 285 59 C311 59 333 80 333 107 L333 107 Z M333 451 C333 477 311 499 285 499 C258 499 237 477 237 451 C237 423 258 403 285 403 C311 403 333 423 333 451 L333 451 Z M502 254 L502 317 L62 317 L62 254 L502 254 Z " />
<glyph glyph-name="oslash" unicode="&#xf8;" horiz-adv-x="551" d="M167 -47 L193 5 C218 -3 246 -7 276 -7 C412 -7 509 79 509 234 C509 329 470 398 410 437 L430 476 L377 505 L355 462 C331 470 304 474 276 474 C146 474 43 389 43 234 C43 139 79 70 138 31 L114 -18 L167 -47 Z M276 56 C257 56 240 59 223 64 L378 373 C411 344 434 298 434 234 C434 112 358 56 276 56 L276 56 Z M117 234 C117 356 200 411 276 411 C292 411 309 408 325 403 L170 94 C138 123 117 169 117 234 L117 234 Z " />
<glyph glyph-name="ugrave" unicode="&#xf9;" horiz-adv-x="592" d="M255 536 L312 536 L218 719 L119 719 L255 536 Z M431 94 L439 0 L565 0 L565 62 L496 62 L496 467 L355 467 L355 405 L421 405 L421 160 C418 150 393 57 284 57 C195 57 163 112 163 187 L163 467 L20 467 L20 405 L88 405 L88 175 C88 70 143 -7 265 -7 C403 -7 429 94 429 94 L431 94 Z " />
<glyph glyph-name="uacute" unicode="&#xfa;" horiz-adv-x="592" d="M378 719 L280 719 L185 536 L243 536 L378 719 Z M431 94 L439 0 L565 0 L565 62 L496 62 L496 467 L355 467 L355 405 L421 405 L421 160 C418 150 393 57 284 57 C195 57 163 112 163 187 L163 467 L20 467 L20 405 L88 405 L88 175 C88 70 143 -7 265 -7 C403 -7 429 94 429 94 L431 94 Z " />
<glyph glyph-name="ucircumflex" unicode="&#xfb;" horiz-adv-x="592" d="M362 536 L419 536 L317 719 L221 719 L119 536 L176 536 L269 660 L362 536 Z M431 94 L439 0 L565 0 L565 62 L496 62 L496 467 L355 467 L355 405 L421 405 L421 160 C418 150 393 57 284 57 C195 57 163 112 163 187 L163 467 L20 467 L20 405 L88 405 L88 175 C88 70 143 -7 265 -7 C403 -7 429 94 429 94 L431 94 Z " />
<glyph glyph-name="udieresis" unicode="&#xfc;" horiz-adv-x="592" d="M233 578 C233 604 212 625 186 625 C160 625 140 604 140 578 C140 552 160 531 186 531 C212 531 233 552 233 578 L233 578 Z M400 578 C400 604 378 625 352 625 C326 625 305 604 305 578 C305 552 326 531 352 531 C378 531 400 552 400 578 L400 578 Z M431 94 L439 0 L565 0 L565 62 L496 62 L496 467 L355 467 L355 405 L421 405 L421 160 C418 150 393 57 284 57 C195 57 163 112 163 187 L163 467 L20 467 L20 405 L88 405 L88 175 C88 70 143 -7 265 -7 C403 -7 429 94 429 94 L431 94 Z " />
<glyph glyph-name="yacute" unicode="&#xfd;" horiz-adv-x="568" d="M400 719 L302 719 L207 536 L265 536 L400 719 Z M258 7 L252 -9 C215 -94 125 -177 24 -215 L48 -281 C201 -224 286 -105 321 -15 L494 405 L562 405 L562 467 L361 467 L361 405 L419 405 L288 83 L282 83 L152 405 L208 405 L208 467 L6 467 L6 405 L74 405 L241 7 L258 7 Z " />
<glyph glyph-name="thorn" unicode="&#xfe;" horiz-adv-x="571" d="M80 -216 L11 -216 L11 -278 L237 -278 L237 -222 L155 -222 L155 23 C155 27 152 57 152 57 L155 57 C155 57 197 -7 311 -7 C427 -7 527 79 527 233 C527 391 434 474 312 474 C214 474 167 417 155 401 L152 401 C152 401 155 431 155 435 L155 746 L11 746 L11 684 L80 684 L80 -216 Z M295 411 C378 411 452 352 452 233 C452 113 371 56 296 56 C207 56 168 102 155 122 L155 333 C180 383 238 411 295 411 L295 411 Z " />
<glyph glyph-name="ydieresis" unicode="&#xff;" horiz-adv-x="568" d="M254 578 C254 604 233 625 207 625 C181 625 161 604 161 578 C161 552 181 531 207 531 C233 531 254 552 254 578 L254 578 Z M421 578 C421 604 399 625 373 625 C347 625 326 604 326 578 C326 552 347 531 373 531 C399 531 421 552 421 578 L421 578 Z M258 7 L252 -9 C215 -94 125 -177 24 -215 L48 -281 C201 -224 286 -105 321 -15 L494 405 L562 405 L562 467 L361 467 L361 405 L419 405 L288 83 L282 83 L152 405 L208 405 L208 467 L6 467 L6 405 L74 405 L241 7 L258 7 Z " />
<glyph glyph-name="Amacron" unicode="&#x100;" horiz-adv-x="730" d="M516 733 L516 796 L200 796 L200 733 L516 733 Z M410 688 L214 688 L214 626 L297 626 L74 62 L-1 62 L-1 0 L235 0 L235 62 L153 62 L219 233 L511 233 L578 62 L495 62 L495 0 L736 0 L736 62 L659 62 L410 688 Z M348 562 C350 568 362 602 362 602 L369 602 C369 602 381 568 383 562 L485 299 L245 299 L348 562 Z " />
<glyph glyph-name="amacron" unicode="&#x101;" horiz-adv-x="533" d="M383 78 L392 0 L504 0 L504 62 L448 62 L448 296 C448 418 370 474 244 474 C111 474 51 403 51 335 L51 312 L120 312 L120 322 C120 374 161 413 242 413 C327 413 373 379 373 299 L373 260 L255 260 C124 260 42 215 42 128 C42 50 107 -7 203 -7 C340 -7 381 78 381 78 L383 78 Z M373 133 C373 133 327 52 219 52 C159 52 116 82 116 128 C116 182 178 206 260 206 L373 206 L373 133 Z M421 543 L421 606 L105 606 L105 543 L421 543 Z " />
<glyph glyph-name="Abreve" unicode="&#x102;" horiz-adv-x="730" d="M359 729 C456 729 502 797 502 887 L439 887 C439 829 415 786 359 786 C302 786 278 829 278 887 L215 887 C215 797 261 729 359 729 L359 729 Z M410 688 L214 688 L214 626 L297 626 L74 62 L-1 62 L-1 0 L235 0 L235 62 L153 62 L219 233 L511 233 L578 62 L495 62 L495 0 L736 0 L736 62 L659 62 L410 688 Z M348 562 C350 568 362 602 362 602 L369 602 C369 602 381 568 383 562 L485 299 L245 299 L348 562 Z " />
<glyph glyph-name="abreve" unicode="&#x103;" horiz-adv-x="533" d="M383 78 L392 0 L504 0 L504 62 L448 62 L448 296 C448 418 370 474 244 474 C111 474 51 403 51 335 L51 312 L120 312 L120 322 C120 374 161 413 242 413 C327 413 373 379 373 299 L373 260 L255 260 C124 260 42 215 42 128 C42 50 107 -7 203 -7 C340 -7 381 78 381 78 L383 78 Z M373 133 C373 133 327 52 219 52 C159 52 116 82 116 128 C116 182 178 206 260 206 L373 206 L373 133 Z M280 531 C377 531 423 599 423 689 L360 689 C360 631 336 588 280 588 C223 588 199 631 199 689 L136 689 C136 599 182 531 280 531 L280 531 Z " />
<glyph glyph-name="Aogonek" unicode="&#x104;" horiz-adv-x="730" d="M731 -95 C720 -102 708 -115 678 -115 C655 -115 640 -101 640 -79 C640 -39 684 -11 706 0 L736 0 L736 62 L659 62 L410 688 L214 688 L214 626 L297 626 L74 62 L-1 62 L-1 0 L235 0 L235 62 L153 62 L219 233 L511 233 L578 62 L495 62 L495 0 L650 0 C622 -17 590 -46 590 -88 C590 -135 622 -161 670 -161 C706 -161 734 -144 749 -130 L731 -95 Z M348 562 C350 568 362 602 362 602 L369 602 C369 602 381 568 383 562 L485 299 L245 299 L348 562 Z " />
<glyph glyph-name="aogonek" unicode="&#x105;" horiz-adv-x="534" d="M497 -95 C486 -102 474 -115 444 -115 C421 -115 406 -101 406 -79 C406 -39 450 -11 472 0 L505 0 L505 62 L449 62 L449 296 C449 418 371 474 245 474 C112 474 52 403 52 335 L52 312 L121 312 L121 322 C121 374 162 413 243 413 C328 413 374 379 374 299 L374 260 L256 260 C125 260 43 215 43 128 C43 50 108 -7 204 -7 C341 -7 382 78 382 78 L384 78 L393 0 L416 0 C388 -17 356 -46 356 -88 C356 -135 388 -161 436 -161 C472 -161 500 -144 515 -130 L497 -95 Z M374 133 C374 133 328 52 220 52 C160 52 117 82 117 128 C117 182 179 206 261 206 L374 206 L374 133 Z " />
<glyph glyph-name="Cacute" unicode="&#x106;" horiz-adv-x="662" d="M466 914 L368 914 L273 731 L331 731 L466 914 Z M615 440 L615 472 C615 607 508 694 353 694 C171 694 51 581 51 340 C51 103 170 -7 352 -7 C519 -7 612 72 612 202 L612 212 L533 212 C533 104 464 62 356 62 C224 62 131 135 131 339 C131 545 223 625 356 625 C455 625 538 569 538 463 L538 440 L615 440 Z " />
<glyph glyph-name="cacute" unicode="&#x107;" horiz-adv-x="514" d="M423 719 L325 719 L230 536 L288 536 L423 719 Z M275 411 C366 411 406 367 406 297 L406 282 L475 282 L475 307 C475 394 422 474 276 474 C133 474 44 396 44 234 C44 79 142 -7 281 -7 C413 -7 465 53 465 53 L439 107 C439 107 395 56 286 56 C197 56 118 112 118 234 C118 364 181 411 275 411 L275 411 Z " />
<glyph glyph-name="Ccircumflex" unicode="&#x108;" horiz-adv-x="661" d="M454 732 L511 732 L409 915 L313 915 L211 732 L268 732 L361 856 L454 732 Z M615 440 L615 472 C615 607 508 694 353 694 C171 694 51 581 51 340 C51 103 170 -7 352 -7 C519 -7 612 72 612 202 L612 212 L533 212 C533 104 464 62 356 62 C224 62 131 135 131 339 C131 545 223 625 356 625 C455 625 538 569 538 463 L538 440 L615 440 Z " />
<glyph glyph-name="ccircumflex" unicode="&#x109;" horiz-adv-x="514" d="M374 536 L431 536 L329 719 L233 719 L131 536 L188 536 L281 660 L374 536 Z M275 411 C366 411 406 367 406 297 L406 282 L475 282 L475 307 C475 394 422 474 276 474 C133 474 44 396 44 234 C44 79 142 -7 281 -7 C413 -7 465 53 465 53 L439 107 C439 107 395 56 286 56 C197 56 118 112 118 234 C118 364 181 411 275 411 L275 411 Z " />
<glyph glyph-name="Cdotaccent" unicode="&#x10a;" horiz-adv-x="661" d="M427 782 C427 811 405 833 376 833 C346 833 325 811 325 782 C325 753 346 731 376 731 C405 731 427 753 427 782 L427 782 Z M615 440 L615 472 C615 607 508 694 353 694 C171 694 51 581 51 340 C51 103 170 -7 352 -7 C519 -7 612 72 612 202 L612 212 L533 212 C533 104 464 62 356 62 C224 62 131 135 131 339 C131 545 223 625 356 625 C455 625 538 569 538 463 L538 440 L615 440 Z " />
<glyph glyph-name="cdotaccent" unicode="&#x10b;" horiz-adv-x="514" d="M332 619 C332 648 310 670 281 670 C251 670 230 648 230 619 C230 590 251 568 281 568 C310 568 332 590 332 619 L332 619 Z M275 411 C366 411 406 367 406 297 L406 282 L475 282 L475 307 C475 394 422 474 276 474 C133 474 44 396 44 234 C44 79 142 -7 281 -7 C413 -7 465 53 465 53 L439 107 C439 107 395 56 286 56 C197 56 118 112 118 234 C118 364 181 411 275 411 L275 411 Z " />
<glyph glyph-name="Ccaron" unicode="&#x10c;" horiz-adv-x="661" d="M275 916 L217 916 L320 733 L415 733 L519 916 L460 916 L367 792 L275 916 Z M615 440 L615 472 C615 607 508 694 353 694 C171 694 51 581 51 340 C51 103 170 -7 352 -7 C519 -7 612 72 612 202 L612 212 L533 212 C533 104 464 62 356 62 C224 62 131 135 131 339 C131 545 223 625 356 625 C455 625 538 569 538 463 L538 440 L615 440 Z " />
<glyph glyph-name="ccaron" unicode="&#x10d;" horiz-adv-x="514" d="M207 719 L149 719 L252 536 L347 536 L451 719 L392 719 L299 595 L207 719 Z M275 411 C366 411 406 367 406 297 L406 282 L475 282 L475 307 C475 394 422 474 276 474 C133 474 44 396 44 234 C44 79 142 -7 281 -7 C413 -7 465 53 465 53 L439 107 C439 107 395 56 286 56 C197 56 118 112 118 234 C118 364 181 411 275 411 L275 411 Z " />
<glyph glyph-name="Dcaron" unicode="&#x10e;" horiz-adv-x="729" d="M234 915 L176 915 L279 732 L374 732 L478 915 L419 915 L326 791 L234 915 Z M210 65 L210 623 L317 623 C521 623 600 520 600 341 C600 164 522 65 330 65 L210 65 Z M341 0 C549 0 679 103 679 341 C679 581 549 688 327 688 L44 688 L44 626 L133 626 L133 62 L44 62 L44 0 L341 0 Z " />
<glyph glyph-name="dcaron" unicode="&#x10f;" horiz-adv-x="585" d="M566 576 C597 586 644 608 644 676 C644 720 620 745 587 745 C560 745 538 726 538 699 C538 672 557 653 581 653 C594 653 599 658 599 658 C599 658 601 655 601 649 C601 620 568 607 556 603 L566 576 Z M260 474 C143 474 43 388 43 234 C43 76 136 -7 259 -7 C372 -7 418 70 418 70 L422 70 L433 0 L559 0 L559 62 L490 62 L490 746 L343 746 L343 684 L415 684 L415 444 C415 440 418 410 418 410 L415 410 C415 410 379 474 260 474 L260 474 Z M276 56 C192 56 118 113 118 234 C118 356 200 411 275 411 C362 411 402 364 415 344 L415 134 C389 83 332 56 276 56 L276 56 Z " />
<glyph glyph-name="Dcroat" unicode="&#x110;" horiz-adv-x="729" d="M341 0 C549 0 679 103 679 341 C679 581 549 688 327 688 L44 688 L44 626 L133 626 L133 378 L51 378 L51 316 L133 316 L133 62 L44 62 L44 0 L341 0 Z M210 65 L210 316 L380 316 L380 378 L210 378 L210 623 L317 623 C521 623 600 520 600 341 C600 164 522 65 330 65 L210 65 Z " />
<glyph glyph-name="dcroat" unicode="&#x111;" horiz-adv-x="585" d="M254 549 L415 549 L415 444 C415 440 418 410 418 410 L415 410 C415 410 379 474 260 474 C143 474 43 388 43 234 C43 76 136 -7 259 -7 C372 -7 418 70 418 70 L422 70 L433 0 L559 0 L559 62 L490 62 L490 549 L562 549 L562 609 L490 609 L490 746 L343 746 L343 684 L415 684 L415 609 L254 609 L254 549 Z M276 56 C192 56 118 113 118 234 C118 356 200 411 275 411 C362 411 402 364 415 344 L415 134 C389 83 332 56 276 56 L276 56 Z " />
<glyph glyph-name="Emacron" unicode="&#x112;" horiz-adv-x="625" d="M492 739 L492 802 L176 802 L176 739 L492 739 Z M570 0 L573 172 L512 172 L512 65 L210 65 L210 315 L464 315 L464 381 L210 381 L210 623 L511 623 L511 515 L574 515 L571 688 L44 688 L44 626 L133 626 L133 62 L44 62 L44 0 L570 0 Z " />
<glyph glyph-name="emacron" unicode="&#x113;" horiz-adv-x="522" d="M483 260 C483 379 399 474 278 474 C143 474 43 389 43 234 C43 79 143 -7 279 -7 C411 -7 465 53 465 53 L438 107 C438 107 395 56 287 56 C201 56 127 105 118 212 L478 212 C478 212 483 232 483 260 L483 260 Z M279 411 C341 411 411 370 413 268 L117 268 C125 362 196 411 279 411 L279 411 Z M424 543 L424 606 L108 606 L108 543 L424 543 Z " />
<glyph glyph-name="Ebreve" unicode="&#x114;" horiz-adv-x="625" d="M331 729 C428 729 474 797 474 887 L411 887 C411 829 387 786 331 786 C274 786 250 829 250 887 L187 887 C187 797 233 729 331 729 L331 729 Z M570 0 L573 172 L512 172 L512 65 L210 65 L210 315 L464 315 L464 381 L210 381 L210 623 L511 623 L511 515 L574 515 L571 688 L44 688 L44 626 L133 626 L133 62 L44 62 L44 0 L570 0 Z " />
<glyph glyph-name="ebreve" unicode="&#x115;" horiz-adv-x="522" d="M483 260 C483 379 399 474 278 474 C143 474 43 389 43 234 C43 79 143 -7 279 -7 C411 -7 465 53 465 53 L438 107 C438 107 395 56 287 56 C201 56 127 105 118 212 L478 212 C478 212 483 232 483 260 L483 260 Z M279 411 C341 411 411 370 413 268 L117 268 C125 362 196 411 279 411 L279 411 Z M293 531 C390 531 436 599 436 689 L373 689 C373 631 349 588 293 588 C236 588 212 631 212 689 L149 689 C149 599 195 531 293 531 L293 531 Z " />
<glyph glyph-name="Edotaccent" unicode="&#x116;" horiz-adv-x="625" d="M392 782 C392 811 370 833 341 833 C311 833 290 811 290 782 C290 753 311 731 341 731 C370 731 392 753 392 782 L392 782 Z M570 0 L573 172 L512 172 L512 65 L210 65 L210 315 L464 315 L464 381 L210 381 L210 623 L511 623 L511 515 L574 515 L571 688 L44 688 L44 626 L133 626 L133 62 L44 62 L44 0 L570 0 Z " />
<glyph glyph-name="edotaccent" unicode="&#x117;" horiz-adv-x="522" d="M483 260 C483 379 399 474 278 474 C143 474 43 389 43 234 C43 79 143 -7 279 -7 C411 -7 465 53 465 53 L438 107 C438 107 395 56 287 56 C201 56 127 105 118 212 L478 212 C478 212 483 232 483 260 L483 260 Z M279 411 C341 411 411 370 413 268 L117 268 C125 362 196 411 279 411 L279 411 Z M322 619 C322 648 300 670 271 670 C241 670 220 648 220 619 C220 590 241 568 271 568 C300 568 322 590 322 619 L322 619 Z " />
<glyph glyph-name="Eogonek" unicode="&#x118;" horiz-adv-x="625" d="M578 -95 C567 -102 555 -115 525 -115 C502 -115 487 -101 487 -79 C487 -39 531 -11 553 0 L570 0 L573 172 L512 172 L512 65 L210 65 L210 315 L464 315 L464 381 L210 381 L210 623 L511 623 L511 515 L574 515 L571 688 L44 688 L44 626 L133 626 L133 62 L44 62 L44 0 L497 0 C469 -17 437 -46 437 -88 C437 -135 469 -161 517 -161 C553 -161 581 -144 596 -130 L578 -95 Z " />
<glyph glyph-name="eogonek" unicode="&#x119;" horiz-adv-x="522" d="M483 260 C483 379 399 474 278 474 C143 474 43 389 43 234 C43 90 129 5 251 -5 C225 -23 199 -50 199 -88 C199 -135 231 -161 279 -161 C315 -161 343 -144 358 -130 L340 -95 C329 -102 317 -115 287 -115 C264 -115 249 -101 249 -79 C249 -46 280 -20 304 -6 C417 1 465 53 465 53 L438 107 C438 107 395 56 287 56 C201 56 127 105 118 212 L478 212 C478 212 483 232 483 260 L483 260 Z M279 411 C341 411 411 370 413 268 L117 268 C125 362 196 411 279 411 L279 411 Z " />
<glyph glyph-name="Ecaron" unicode="&#x11a;" horiz-adv-x="625" d="M266 915 L208 915 L311 732 L406 732 L510 915 L451 915 L358 791 L266 915 Z M570 0 L573 172 L512 172 L512 65 L210 65 L210 315 L464 315 L464 381 L210 381 L210 623 L511 623 L511 515 L574 515 L571 688 L44 688 L44 626 L133 626 L133 62 L44 62 L44 0 L570 0 Z " />
<glyph glyph-name="ecaron" unicode="&#x11b;" horiz-adv-x="522" d="M190 719 L132 719 L235 536 L330 536 L434 719 L375 719 L282 595 L190 719 Z M483 260 C483 379 399 474 278 474 C143 474 43 389 43 234 C43 79 143 -7 279 -7 C411 -7 465 53 465 53 L438 107 C438 107 395 56 287 56 C201 56 127 105 118 212 L478 212 C478 212 483 232 483 260 L483 260 Z M279 411 C341 411 411 370 413 268 L117 268 C125 362 196 411 279 411 L279 411 Z " />
<glyph glyph-name="Gcircumflex" unicode="&#x11c;" horiz-adv-x="670" d="M446 731 L503 731 L401 914 L305 914 L203 731 L260 731 L353 855 L446 731 Z M615 329 L343 329 L343 263 L538 263 L538 231 C538 108 466 62 357 62 C225 62 131 135 131 339 C131 545 223 625 356 625 C455 625 538 570 538 465 L538 440 L615 440 L615 473 C615 608 508 694 353 694 C171 694 51 581 51 340 C51 103 171 -7 353 -7 C521 -7 615 81 615 232 L615 329 Z " />
<glyph glyph-name="gcircumflex" unicode="&#x11d;" horiz-adv-x="585" d="M376 536 L433 536 L331 719 L235 719 L133 536 L190 536 L283 660 L376 536 Z M417 -44 C417 -175 338 -220 246 -220 C125 -220 83 -158 83 -158 L50 -210 C50 -210 108 -283 247 -283 C383 -283 491 -214 491 -44 L491 405 L560 405 L560 467 L434 467 L422 396 L419 396 C419 396 372 474 259 474 C137 474 44 391 44 233 C44 79 144 -7 260 -7 C368 -7 411 50 415 56 L419 56 C419 56 417 35 417 17 L417 -44 Z M275 56 C200 56 119 111 119 233 C119 354 193 411 276 411 C333 411 390 383 416 333 L416 122 C402 101 361 56 275 56 L275 56 Z " />
<glyph glyph-name="Gbreve" unicode="&#x11e;" horiz-adv-x="670" d="M363 728 C460 728 506 796 506 886 L443 886 C443 828 419 785 363 785 C306 785 282 828 282 886 L219 886 C219 796 265 728 363 728 L363 728 Z M615 329 L343 329 L343 263 L538 263 L538 231 C538 108 466 62 357 62 C225 62 131 135 131 339 C131 545 223 625 356 625 C455 625 538 570 538 465 L538 440 L615 440 L615 473 C615 608 508 694 353 694 C171 694 51 581 51 340 C51 103 171 -7 353 -7 C521 -7 615 81 615 232 L615 329 Z " />
<glyph glyph-name="gbreve" unicode="&#x11f;" horiz-adv-x="585" d="M296 531 C393 531 439 599 439 689 L376 689 C376 631 352 588 296 588 C239 588 215 631 215 689 L152 689 C152 599 198 531 296 531 L296 531 Z M417 -44 C417 -175 338 -220 246 -220 C125 -220 83 -158 83 -158 L50 -210 C50 -210 108 -283 247 -283 C383 -283 491 -214 491 -44 L491 405 L560 405 L560 467 L434 467 L422 396 L419 396 C419 396 372 474 259 474 C137 474 44 391 44 233 C44 79 144 -7 260 -7 C368 -7 411 50 415 56 L419 56 C419 56 417 35 417 17 L417 -44 Z M275 56 C200 56 119 111 119 233 C119 354 193 411 276 411 C333 411 390 383 416 333 L416 122 C402 101 361 56 275 56 L275 56 Z " />
<glyph glyph-name="Gdotaccent" unicode="&#x120;" horiz-adv-x="670" d="M416 782 C416 811 394 833 365 833 C335 833 314 811 314 782 C314 753 335 731 365 731 C394 731 416 753 416 782 L416 782 Z M615 329 L343 329 L343 263 L538 263 L538 231 C538 108 466 62 357 62 C225 62 131 135 131 339 C131 545 223 625 356 625 C455 625 538 570 538 465 L538 440 L615 440 L615 473 C615 608 508 694 353 694 C171 694 51 581 51 340 C51 103 171 -7 353 -7 C521 -7 615 81 615 232 L615 329 Z " />
<glyph glyph-name="gdotaccent" unicode="&#x121;" horiz-adv-x="585" d="M338 619 C338 648 316 670 287 670 C257 670 236 648 236 619 C236 590 257 568 287 568 C316 568 338 590 338 619 L338 619 Z M417 -44 C417 -175 338 -220 246 -220 C125 -220 83 -158 83 -158 L50 -210 C50 -210 108 -283 247 -283 C383 -283 491 -214 491 -44 L491 405 L560 405 L560 467 L434 467 L422 396 L419 396 C419 396 372 474 259 474 C137 474 44 391 44 233 C44 79 144 -7 260 -7 C368 -7 411 50 415 56 L419 56 C419 56 417 35 417 17 L417 -44 Z M275 56 C200 56 119 111 119 233 C119 354 193 411 276 411 C333 411 390 383 416 333 L416 122 C402 101 361 56 275 56 L275 56 Z " />
<glyph glyph-name="Gcommaaccent" unicode="&#x122;" horiz-adv-x="670" d="M349 -213 C380 -203 427 -181 427 -113 C427 -69 403 -44 370 -44 C343 -44 321 -63 321 -90 C321 -117 340 -136 364 -136 C377 -136 382 -131 382 -131 C382 -131 384 -134 384 -140 C384 -169 351 -182 339 -186 L349 -213 Z M615 329 L343 329 L343 263 L538 263 L538 231 C538 108 466 62 357 62 C225 62 131 135 131 339 C131 545 223 625 356 625 C455 625 538 570 538 465 L538 440 L615 440 L615 473 C615 608 508 694 353 694 C171 694 51 581 51 340 C51 103 171 -7 353 -7 C521 -7 615 81 615 232 L615 329 Z " />
<glyph glyph-name="gcommaaccent" unicode="&#x123;" horiz-adv-x="586" d="M244 537 C275 547 322 569 322 637 C322 681 298 706 265 706 C238 706 216 687 216 660 C216 633 235 614 259 614 C272 614 277 619 277 619 C277 619 279 616 279 610 C279 581 246 568 234 564 L244 537 Z M417 -44 C417 -175 338 -220 246 -220 C125 -220 83 -158 83 -158 L50 -210 C50 -210 108 -283 247 -283 C383 -283 491 -214 491 -44 L491 405 L560 405 L560 467 L434 467 L422 396 L419 396 C419 396 372 474 259 474 C137 474 44 391 44 233 C44 79 144 -7 260 -7 C368 -7 411 50 415 56 L419 56 C419 56 417 35 417 17 L417 -44 Z M275 56 C200 56 119 111 119 233 C119 354 193 411 276 411 C333 411 390 383 416 333 L416 122 C402 101 361 56 275 56 L275 56 Z " />
<glyph glyph-name="Hcircumflex" unicode="&#x124;" horiz-adv-x="808" d="M510 732 L567 732 L465 915 L369 915 L267 732 L324 732 L417 856 L510 732 Z M765 0 L765 62 L674 62 L674 626 L765 626 L765 688 L508 688 L508 626 L597 626 L597 371 L210 371 L210 626 L301 626 L301 688 L44 688 L44 626 L133 626 L133 62 L44 62 L44 0 L301 0 L301 62 L210 62 L210 306 L597 306 L597 62 L508 62 L508 0 L765 0 Z " />
<glyph glyph-name="hcircumflex" unicode="&#x125;" horiz-adv-x="593" d="M172 306 C172 306 194 409 310 409 C398 409 430 356 430 280 L430 0 L574 0 L574 62 L505 62 L505 292 C505 397 450 474 328 474 C193 474 169 386 169 386 L166 386 L171 474 L171 745 L210 745 L303 869 L396 745 L453 745 L351 928 L255 928 L153 746 L27 746 L27 684 L97 684 L97 62 L28 62 L28 0 L239 0 L239 62 L172 62 L172 306 Z " />
<glyph glyph-name="Hbar" unicode="&#x126;" horiz-adv-x="808" d="M765 0 L765 62 L674 62 L674 478 L735 478 L735 539 L674 539 L674 626 L765 626 L765 688 L508 688 L508 626 L597 626 L597 539 L210 539 L210 626 L301 626 L301 688 L44 688 L44 626 L133 626 L133 539 L60 539 L60 478 L133 478 L133 62 L44 62 L44 0 L301 0 L301 62 L210 62 L210 306 L597 306 L597 62 L508 62 L508 0 L765 0 Z M210 371 L210 478 L597 478 L597 371 L210 371 Z " />
<glyph glyph-name="hbar" unicode="&#x127;" horiz-adv-x="593" d="M172 306 C172 306 194 409 310 409 C398 409 430 356 430 280 L430 0 L574 0 L574 62 L505 62 L505 292 C505 397 450 474 328 474 C193 474 169 386 169 386 L166 386 L171 474 L171 549 L344 549 L344 609 L171 609 L171 746 L27 746 L27 684 L97 684 L97 609 L36 609 L36 549 L97 549 L97 62 L28 62 L28 0 L239 0 L239 62 L172 62 L172 306 Z " />
<glyph glyph-name="Itilde" unicode="&#x128;" horiz-adv-x="344" d="M261 728 C316 728 346 765 360 805 L321 830 C299 804 283 791 256 791 C203 791 160 836 95 836 C40 836 10 799 -4 759 L35 734 C56 760 73 773 100 773 C150 773 197 728 261 728 L261 728 Z M301 0 L301 62 L210 62 L210 626 L301 626 L301 688 L44 688 L44 626 L133 626 L133 62 L44 62 L44 0 L301 0 Z " />
<glyph glyph-name="itilde" unicode="&#x129;" horiz-adv-x="283" d="M219 525 C274 525 304 562 318 602 L279 627 C257 601 241 588 214 588 C161 588 118 633 53 633 C-2 633 -32 596 -46 556 L-7 531 C14 557 31 570 58 570 C108 570 155 525 219 525 L219 525 Z M184 467 L40 467 L40 405 L109 405 L109 62 L40 62 L40 0 L251 0 L251 62 L184 62 L184 467 Z " />
<glyph glyph-name="Imacron" unicode="&#x12a;" horiz-adv-x="344" d="M332 733 L332 796 L16 796 L16 733 L332 733 Z M301 0 L301 62 L210 62 L210 626 L301 626 L301 688 L44 688 L44 626 L133 626 L133 62 L44 62 L44 0 L301 0 Z " />
<glyph glyph-name="imacron" unicode="&#x12b;" horiz-adv-x="283" d="M293 543 L293 606 L-23 606 L-23 543 L293 543 Z M184 467 L40 467 L40 405 L109 405 L109 62 L40 62 L40 0 L251 0 L251 62 L184 62 L184 467 Z " />
<glyph glyph-name="Ibreve" unicode="&#x12c;" horiz-adv-x="344" d="M173 729 C270 729 316 797 316 887 L253 887 C253 829 229 786 173 786 C116 786 92 829 92 887 L29 887 C29 797 75 729 173 729 L173 729 Z M301 0 L301 62 L210 62 L210 626 L301 626 L301 688 L44 688 L44 626 L133 626 L133 62 L44 62 L44 0 L301 0 Z " />
<glyph glyph-name="ibreve" unicode="&#x12d;" horiz-adv-x="283" d="M155 531 C252 531 298 599 298 689 L235 689 C235 631 211 588 155 588 C98 588 74 631 74 689 L11 689 C11 599 57 531 155 531 L155 531 Z M184 467 L40 467 L40 405 L109 405 L109 62 L40 62 L40 0 L251 0 L251 62 L184 62 L184 467 Z " />
<glyph glyph-name="Iogonek" unicode="&#x12e;" horiz-adv-x="343" d="M285 -95 C274 -102 262 -115 232 -115 C209 -115 194 -101 194 -79 C194 -39 238 -11 260 0 L301 0 L301 62 L210 62 L210 626 L301 626 L301 688 L44 688 L44 626 L133 626 L133 62 L44 62 L44 0 L204 0 C176 -17 144 -46 144 -88 C144 -135 176 -161 224 -161 C260 -161 288 -144 303 -130 L285 -95 Z " />
<glyph glyph-name="iogonek" unicode="&#x12f;" horiz-adv-x="282" d="M210 -95 C199 -102 187 -115 157 -115 C134 -115 119 -101 119 -79 C119 -39 163 -11 185 0 L251 0 L251 62 L184 62 L184 467 L40 467 L40 405 L109 405 L109 62 L40 62 L40 0 L129 0 C101 -17 69 -46 69 -88 C69 -135 101 -161 149 -161 C185 -161 213 -144 228 -130 L210 -95 Z M203 654 C203 686 176 712 143 712 C111 712 85 686 85 654 C85 620 111 594 143 594 C176 594 203 620 203 654 L203 654 Z " />
<glyph glyph-name="Idotaccent" unicode="&#x130;" horiz-adv-x="344" d="M226 782 C226 811 204 833 175 833 C145 833 124 811 124 782 C124 753 145 731 175 731 C204 731 226 753 226 782 L226 782 Z M301 0 L301 62 L210 62 L210 626 L301 626 L301 688 L44 688 L44 626 L133 626 L133 62 L44 62 L44 0 L301 0 Z " />
<glyph glyph-name="dotlessi" unicode="&#x131;" horiz-adv-x="283" d="M184 467 L40 467 L40 405 L109 405 L109 62 L40 62 L40 0 L251 0 L251 62 L184 62 L184 467 Z " />
<glyph glyph-name="Jcircumflex" unicode="&#x134;" horiz-adv-x="336" d="M264 732 L321 732 L219 915 L123 915 L21 732 L78 732 L171 856 L264 732 Z M134 19 C134 -92 91 -141 10 -167 L32 -237 C129 -220 211 -145 211 14 L211 626 L302 626 L302 688 L43 688 L43 626 L134 626 L134 19 Z " />
<glyph glyph-name="jcircumflex" unicode="&#x135;" horiz-adv-x="255" d="M222 536 L279 536 L177 719 L81 719 L-21 536 L36 536 L129 660 L222 536 Z M100 -84 C100 -156 55 -190 -6 -213 L19 -282 C98 -259 175 -202 175 -97 L175 467 L31 467 L31 405 L100 405 L100 -84 Z " />
<glyph glyph-name="Kcommaaccent" unicode="&#x136;" horiz-adv-x="724" d="M360 -213 C391 -203 438 -181 438 -113 C438 -69 414 -44 381 -44 C354 -44 332 -63 332 -90 C332 -117 351 -136 375 -136 C388 -136 393 -131 393 -131 C393 -131 395 -134 395 -140 C395 -169 362 -182 350 -186 L360 -213 Z M210 625 L294 625 L294 688 L44 688 L44 625 L133 625 L133 63 L44 63 L44 0 L308 0 L308 63 L210 63 L210 296 L350 296 L581 0 L700 0 L701 62 L631 62 L418 337 L621 625 L707 625 L707 688 L449 688 L449 625 L534 625 L350 360 L210 360 L210 625 Z " />
<glyph glyph-name="kcommaaccent" unicode="&#x137;" horiz-adv-x="580" d="M284 -213 C315 -203 362 -181 362 -113 C362 -69 338 -44 305 -44 C278 -44 256 -63 256 -90 C256 -117 275 -136 299 -136 C312 -136 317 -131 317 -131 C317 -131 319 -134 319 -140 C319 -169 286 -182 274 -186 L284 -213 Z M172 746 L27 746 L27 684 L97 684 L97 62 L27 62 L27 0 L239 0 L239 62 L172 62 L172 213 L282 213 L446 0 L559 0 L559 60 L488 60 L345 242 L481 407 L553 407 L553 467 L342 467 L342 407 L400 407 L288 272 L172 272 L172 746 Z " />
<glyph glyph-name="kgreenlandic" unicode="&#x138;" horiz-adv-x="589" d="M181 467 L37 467 L37 404 L106 404 L106 63 L37 63 L37 0 L247 0 L247 63 L181 63 L181 213 L294 213 L458 0 L569 0 L569 63 L496 63 L354 242 L486 404 L562 404 L562 467 L528 467 C486 467 447 456 426 428 L302 272 L181 272 L181 467 Z " />
<glyph glyph-name="Lacute" unicode="&#x139;" horiz-adv-x="580" d="M329 914 L231 914 L136 731 L194 731 L329 914 Z M555 0 L558 184 L497 184 L497 65 L210 65 L210 626 L300 626 L300 688 L44 688 L44 626 L133 626 L133 62 L44 62 L44 0 L555 0 Z " />
<glyph glyph-name="lacute" unicode="&#x13a;" horiz-adv-x="272" d="M286 955 L188 955 L93 772 L151 772 L286 955 Z M174 746 L31 746 L31 684 L99 684 L99 62 L31 62 L31 0 L241 0 L241 62 L174 62 L174 746 Z " />
<glyph glyph-name="Lcommaaccent" unicode="&#x13b;" horiz-adv-x="580" d="M290 -213 C321 -203 368 -181 368 -113 C368 -69 344 -44 311 -44 C284 -44 262 -63 262 -90 C262 -117 281 -136 305 -136 C318 -136 323 -131 323 -131 C323 -131 325 -134 325 -140 C325 -169 292 -182 280 -186 L290 -213 Z M555 0 L558 184 L497 184 L497 65 L210 65 L210 626 L300 626 L300 688 L44 688 L44 626 L133 626 L133 62 L44 62 L44 0 L555 0 Z " />
<glyph glyph-name="lcommaaccent" unicode="&#x13c;" horiz-adv-x="272" d="M115 -213 C146 -203 193 -181 193 -113 C193 -69 169 -44 136 -44 C109 -44 87 -63 87 -90 C87 -117 106 -136 130 -136 C143 -136 148 -131 148 -131 C148 -131 150 -134 150 -140 C150 -169 117 -182 105 -186 L115 -213 Z M174 746 L31 746 L31 684 L99 684 L99 62 L31 62 L31 0 L241 0 L241 62 L174 62 L174 746 Z " />
<glyph glyph-name="Lcaron" unicode="&#x13d;" horiz-adv-x="580" d="M389 519 C420 529 467 551 467 619 C467 663 443 688 410 688 C383 688 361 669 361 642 C361 615 380 596 404 596 C417 596 422 601 422 601 C422 601 424 598 424 592 C424 563 391 550 379 546 L389 519 Z M555 0 L558 184 L497 184 L497 65 L210 65 L210 626 L300 626 L300 688 L44 688 L44 626 L133 626 L133 62 L44 62 L44 0 L555 0 Z " />
<glyph glyph-name="lcaron" unicode="&#x13e;" horiz-adv-x="272" d="M251 576 C282 586 329 608 329 676 C329 720 305 745 272 745 C245 745 223 726 223 699 C223 672 242 653 266 653 C279 653 284 658 284 658 C284 658 286 655 286 649 C286 620 253 607 241 603 L251 576 Z M174 746 L31 746 L31 684 L99 684 L99 62 L31 62 L31 0 L241 0 L241 62 L174 62 L174 746 Z " />
<glyph glyph-name="Ldot" unicode="&#x13f;" horiz-adv-x="580" d="M408 301 C408 330 386 352 357 352 C327 352 306 330 306 301 C306 272 327 250 357 250 C386 250 408 272 408 301 L408 301 Z M555 0 L558 184 L497 184 L497 65 L210 65 L210 626 L300 626 L300 688 L44 688 L44 626 L133 626 L133 62 L44 62 L44 0 L555 0 Z " />
<glyph glyph-name="ldot" unicode="&#x140;" horiz-adv-x="305" d="M339 364 C339 393 317 415 288 415 C258 415 237 393 237 364 C237 335 258 313 288 313 C317 313 339 335 339 364 L339 364 Z M174 746 L31 746 L31 684 L99 684 L99 62 L31 62 L31 0 L241 0 L241 62 L174 62 L174 746 Z " />
<glyph glyph-name="Lslash" unicode="&#x141;" horiz-adv-x="581" d="M556 0 L559 184 L498 184 L498 65 L211 65 L211 308 L362 435 L324 479 L211 384 L211 626 L301 626 L301 688 L45 688 L45 626 L134 626 L134 320 L28 231 L66 186 L134 243 L134 62 L45 62 L45 0 L556 0 Z " />
<glyph glyph-name="lslash" unicode="&#x142;" horiz-adv-x="325" d="M207 746 L64 746 L64 684 L132 684 L132 399 L3 291 L41 247 L132 323 L132 62 L64 62 L64 0 L274 0 L274 62 L207 62 L207 386 L337 496 L299 540 L207 462 L207 746 Z " />
<glyph glyph-name="Nacute" unicode="&#x143;" horiz-adv-x="818" d="M545 914 L447 914 L352 731 L410 731 L545 914 Z M693 0 L693 626 L783 626 L783 688 L526 688 L526 626 L616 626 L616 111 L612 111 L217 688 L44 688 L44 626 L133 626 L133 62 L44 62 L44 0 L301 0 L301 62 L210 62 L210 565 L213 565 L601 0 L693 0 Z " />
<glyph glyph-name="nacute" unicode="&#x144;" horiz-adv-x="601" d="M423 719 L325 719 L230 536 L288 536 L423 719 Z M163 467 L37 467 L37 405 L106 405 L106 62 L37 62 L37 0 L247 0 L247 62 L181 62 L181 307 C183 317 208 410 318 410 C407 410 439 355 439 280 L439 0 L583 0 L583 62 L514 62 L514 292 C514 397 459 474 337 474 C199 474 173 377 173 377 L170 377 L163 467 Z " />
<glyph glyph-name="Ncommaaccent" unicode="&#x145;" horiz-adv-x="818" d="M385 -213 C416 -203 463 -181 463 -113 C463 -69 439 -44 406 -44 C379 -44 357 -63 357 -90 C357 -117 376 -136 400 -136 C413 -136 418 -131 418 -131 C418 -131 420 -134 420 -140 C420 -169 387 -182 375 -186 L385 -213 Z M693 0 L693 626 L783 626 L783 688 L526 688 L526 626 L616 626 L616 111 L612 111 L217 688 L44 688 L44 626 L133 626 L133 62 L44 62 L44 0 L301 0 L301 62 L210 62 L210 565 L213 565 L601 0 L693 0 Z " />
<glyph glyph-name="ncommaaccent" unicode="&#x146;" horiz-adv-x="601" d="M284 -213 C315 -203 362 -181 362 -113 C362 -69 338 -44 305 -44 C278 -44 256 -63 256 -90 C256 -117 275 -136 299 -136 C312 -136 317 -131 317 -131 C317 -131 319 -134 319 -140 C319 -169 286 -182 274 -186 L284 -213 Z M163 467 L37 467 L37 405 L106 405 L106 62 L37 62 L37 0 L247 0 L247 62 L181 62 L181 307 C183 317 208 410 318 410 C407 410 439 355 439 280 L439 0 L583 0 L583 62 L514 62 L514 292 C514 397 459 474 337 474 C199 474 173 377 173 377 L170 377 L163 467 Z " />
<glyph glyph-name="Ncaron" unicode="&#x147;" horiz-adv-x="818" d="M311 915 L253 915 L356 732 L451 732 L555 915 L496 915 L403 791 L311 915 Z M693 0 L693 626 L783 626 L783 688 L526 688 L526 626 L616 626 L616 111 L612 111 L217 688 L44 688 L44 626 L133 626 L133 62 L44 62 L44 0 L301 0 L301 62 L210 62 L210 565 L213 565 L601 0 L693 0 Z " />
<glyph glyph-name="ncaron" unicode="&#x148;" horiz-adv-x="601" d="M232 719 L174 719 L277 536 L372 536 L476 719 L417 719 L324 595 L232 719 Z M163 467 L37 467 L37 405 L106 405 L106 62 L37 62 L37 0 L247 0 L247 62 L181 62 L181 307 C183 317 208 410 318 410 C407 410 439 355 439 280 L439 0 L583 0 L583 62 L514 62 L514 292 C514 397 459 474 337 474 C199 474 173 377 173 377 L170 377 L163 467 Z " />
<glyph glyph-name="napostrophe" unicode="&#x149;" horiz-adv-x="644" d="M59 564 C90 574 137 596 137 664 C137 708 113 733 80 733 C53 733 31 714 31 687 C31 660 50 641 74 641 C87 641 92 646 92 646 C92 646 94 643 94 637 C94 608 61 595 49 591 L59 564 Z M206 467 L80 467 L80 405 L149 405 L149 62 L80 62 L80 0 L290 0 L290 62 L224 62 L224 307 C226 317 251 410 361 410 C450 410 482 355 482 280 L482 0 L626 0 L626 62 L557 62 L557 292 C557 397 502 474 380 474 C242 474 216 377 216 377 L213 377 L206 467 Z " />
<glyph glyph-name="Eng" unicode="&#x14a;" horiz-adv-x="818" d="M491 -167 L514 -237 C610 -220 693 -145 693 14 L693 626 L783 626 L783 688 L526 688 L526 626 L616 626 L616 111 L612 111 L217 688 L44 688 L44 626 L133 626 L133 62 L44 62 L44 0 L301 0 L301 62 L210 62 L210 565 L213 565 L601 0 L616 8 C613 -95 569 -140 491 -167 L491 -167 Z " />
<glyph glyph-name="eng" unicode="&#x14b;" horiz-adv-x="582" d="M163 467 L37 467 L37 405 L106 405 L106 62 L37 62 L37 0 L247 0 L247 62 L181 62 L181 307 C183 317 208 410 318 410 C407 410 439 355 439 280 L439 -73 C439 -145 394 -178 333 -202 L357 -270 C437 -247 514 -190 514 -85 L514 292 C514 397 459 474 337 474 C199 474 173 377 173 377 L170 377 L163 467 Z " />
<glyph glyph-name="Omacron" unicode="&#x14c;" horiz-adv-x="706" d="M507 731 L507 794 L191 794 L191 731 L507 731 Z M656 339 C656 580 537 694 353 694 C170 694 51 580 51 339 C51 103 170 -7 353 -7 C537 -7 656 103 656 339 L656 339 Z M131 339 C131 545 222 625 353 625 C484 625 576 545 576 339 C576 134 484 62 353 62 C222 62 131 134 131 339 L131 339 Z " />
<glyph glyph-name="omacron" unicode="&#x14d;" horiz-adv-x="551" d="M431 543 L431 606 L115 606 L115 543 L431 543 Z M509 234 C509 389 406 474 276 474 C146 474 43 389 43 234 C43 79 140 -7 276 -7 C412 -7 509 79 509 234 L509 234 Z M276 56 C193 56 117 112 117 234 C117 356 200 411 276 411 C351 411 434 356 434 234 C434 112 358 56 276 56 L276 56 Z " />
<glyph glyph-name="Obreve" unicode="&#x14e;" horiz-adv-x="706" d="M656 339 C656 580 537 694 353 694 C170 694 51 580 51 339 C51 103 170 -7 353 -7 C537 -7 656 103 656 339 L656 339 Z M131 339 C131 545 222 625 353 625 C484 625 576 545 576 339 C576 134 484 62 353 62 C222 62 131 134 131 339 L131 339 Z M358 728 C455 728 501 796 501 886 L438 886 C438 828 414 785 358 785 C301 785 277 828 277 886 L214 886 C214 796 260 728 358 728 L358 728 Z " />
<glyph glyph-name="obreve" unicode="&#x14f;" horiz-adv-x="551" d="M509 234 C509 389 406 474 276 474 C146 474 43 389 43 234 C43 79 140 -7 276 -7 C412 -7 509 79 509 234 L509 234 Z M276 56 C193 56 117 112 117 234 C117 356 200 411 276 411 C351 411 434 356 434 234 C434 112 358 56 276 56 L276 56 Z M279 531 C376 531 422 599 422 689 L359 689 C359 631 335 588 279 588 C222 588 198 631 198 689 L135 689 C135 599 181 531 279 531 L279 531 Z " />
<glyph glyph-name="Ohungarumlaut" unicode="&#x150;" horiz-adv-x="706" d="M411 914 L312 914 L228 731 L286 731 L411 914 Z M542 914 L443 914 L358 731 L417 731 L542 914 Z M656 339 C656 580 537 694 353 694 C170 694 51 580 51 339 C51 103 170 -7 353 -7 C537 -7 656 103 656 339 L656 339 Z M131 339 C131 545 222 625 353 625 C484 625 576 545 576 339 C576 134 484 62 353 62 C222 62 131 134 131 339 L131 339 Z " />
<glyph glyph-name="ohungarumlaut" unicode="&#x151;" horiz-adv-x="551" d="M334 719 L235 719 L151 536 L209 536 L334 719 Z M465 719 L366 719 L281 536 L340 536 L465 719 Z M509 234 C509 389 406 474 276 474 C146 474 43 389 43 234 C43 79 140 -7 276 -7 C412 -7 509 79 509 234 L509 234 Z M276 56 C193 56 117 112 117 234 C117 356 200 411 276 411 C351 411 434 356 434 234 C434 112 358 56 276 56 L276 56 Z " />
<glyph glyph-name="OE" unicode="&#x152;" horiz-adv-x="883" d="M827 0 L830 172 L769 172 L769 65 L467 65 L467 315 L721 315 L721 379 L467 379 L467 623 L770 623 L770 515 L831 515 L828 688 L391 688 C208 688 89 579 89 339 C89 108 203 4 381 0 L827 0 Z M169 339 C169 542 259 620 390 621 L390 67 C259 67 169 135 169 339 L169 339 Z " />
<glyph glyph-name="oe" unicode="&#x153;" horiz-adv-x="915" d="M877 260 C877 379 793 474 672 474 C585 474 513 439 472 373 C431 439 359 474 276 474 C146 474 43 389 43 234 C43 79 140 -7 276 -7 C362 -7 433 28 473 93 C514 28 586 -7 673 -7 C805 -7 859 53 859 53 L832 107 C832 107 789 56 681 56 C595 56 521 105 512 212 L872 212 C872 212 877 232 877 260 L877 260 Z M276 56 C193 56 117 112 117 234 C117 356 200 411 276 411 C351 411 434 356 434 234 C434 112 358 56 276 56 L276 56 Z M673 411 C735 411 805 370 807 268 L511 268 C519 362 590 411 673 411 L673 411 Z " />
<glyph glyph-name="Racute" unicode="&#x154;" horiz-adv-x="672" d="M425 914 L327 914 L232 731 L290 731 L425 914 Z M323 0 L323 62 L210 62 L210 261 L378 261 L524 0 L648 0 L648 62 L575 62 L468 251 C462 262 451 272 451 272 L451 275 C538 296 604 360 604 479 C604 617 502 688 369 688 L44 688 L44 626 L133 626 L133 62 L44 62 L44 0 L323 0 Z M210 326 L210 623 L353 623 C445 623 525 582 525 476 C525 365 462 326 364 326 L210 326 Z " />
<glyph glyph-name="racute" unicode="&#x155;" horiz-adv-x="387" d="M344 719 L246 719 L151 536 L209 536 L344 719 Z M374 469 C362 471 344 474 323 474 C196 474 173 348 173 348 L170 348 L163 467 L37 467 L37 405 L106 405 L106 62 L37 62 L37 0 L257 0 L257 62 L181 62 L181 267 C181 267 205 405 321 405 C345 405 363 402 374 398 L374 469 Z " />
<glyph glyph-name="Rcommaaccent" unicode="&#x156;" horiz-adv-x="672" d="M310 -213 C341 -203 388 -181 388 -113 C388 -69 364 -44 331 -44 C304 -44 282 -63 282 -90 C282 -117 301 -136 325 -136 C338 -136 343 -131 343 -131 C343 -131 345 -134 345 -140 C345 -169 312 -182 300 -186 L310 -213 Z M323 0 L323 62 L210 62 L210 261 L378 261 L524 0 L648 0 L648 62 L575 62 L468 251 C462 262 451 272 451 272 L451 275 C538 296 604 360 604 479 C604 617 502 688 369 688 L44 688 L44 626 L133 626 L133 62 L44 62 L44 0 L323 0 Z M210 326 L210 623 L353 623 C445 623 525 582 525 476 C525 365 462 326 364 326 L210 326 Z " />
<glyph glyph-name="rcommaaccent" unicode="&#x157;" horiz-adv-x="387" d="M124 -213 C155 -203 202 -181 202 -113 C202 -69 178 -44 145 -44 C118 -44 96 -63 96 -90 C96 -117 115 -136 139 -136 C152 -136 157 -131 157 -131 C157 -131 159 -134 159 -140 C159 -169 126 -182 114 -186 L124 -213 Z M374 469 C362 471 344 474 323 474 C196 474 173 348 173 348 L170 348 L163 467 L37 467 L37 405 L106 405 L106 62 L37 62 L37 0 L257 0 L257 62 L181 62 L181 267 C181 267 205 405 321 405 C345 405 363 402 374 398 L374 469 Z " />
<glyph glyph-name="Rcaron" unicode="&#x158;" horiz-adv-x="672" d="M232 915 L174 915 L277 732 L372 732 L476 915 L417 915 L324 791 L232 915 Z M323 0 L323 62 L210 62 L210 261 L378 261 L524 0 L648 0 L648 62 L575 62 L468 251 C462 262 451 272 451 272 L451 275 C538 296 604 360 604 479 C604 617 502 688 369 688 L44 688 L44 626 L133 626 L133 62 L44 62 L44 0 L323 0 Z M210 326 L210 623 L353 623 C445 623 525 582 525 476 C525 365 462 326 364 326 L210 326 Z " />
<glyph glyph-name="rcaron" unicode="&#x159;" horiz-adv-x="388" d="M134 719 L76 719 L179 536 L274 536 L378 719 L319 719 L226 595 L134 719 Z M374 469 C362 471 344 474 323 474 C196 474 173 348 173 348 L170 348 L163 467 L37 467 L37 405 L106 405 L106 62 L37 62 L37 0 L257 0 L257 62 L181 62 L181 267 C181 267 205 405 321 405 C345 405 363 402 374 398 L374 469 Z " />
<glyph glyph-name="Sacute" unicode="&#x15a;" horiz-adv-x="583" d="M423 914 L325 914 L230 731 L288 731 L423 914 Z M55 208 L55 166 C55 77 127 -7 291 -7 C465 -7 539 77 539 178 C539 431 131 339 131 514 C131 579 192 625 287 625 C401 625 441 568 441 506 L441 482 L518 482 L518 520 C518 622 437 694 286 694 C131 694 52 607 52 512 C52 265 460 361 460 172 C460 101 403 62 290 62 C197 62 134 108 134 181 L134 208 L55 208 Z " />
<glyph glyph-name="sacute" unicode="&#x15b;" horiz-adv-x="477" d="M360 719 L262 719 L167 536 L225 536 L360 719 Z M41 152 L41 123 C41 57 94 -7 238 -7 C378 -7 434 53 434 128 C434 220 349 247 261 264 C193 277 127 287 127 342 C127 391 182 413 236 413 C319 413 352 384 352 334 L352 312 L422 312 L422 346 C422 417 371 474 233 474 C129 474 53 423 53 343 C53 242 147 220 231 205 C298 193 360 177 360 129 C360 83 322 55 236 55 C151 55 111 93 111 141 L111 152 L41 152 Z " />
<glyph glyph-name="Scircumflex" unicode="&#x15c;" horiz-adv-x="583" d="M397 732 L454 732 L352 915 L256 915 L154 732 L211 732 L304 856 L397 732 Z M55 208 L55 166 C55 77 127 -7 291 -7 C465 -7 539 77 539 178 C539 431 131 339 131 514 C131 579 192 625 287 625 C401 625 441 568 441 506 L441 482 L518 482 L518 520 C518 622 437 694 286 694 C131 694 52 607 52 512 C52 265 460 361 460 172 C460 101 403 62 290 62 C197 62 134 108 134 181 L134 208 L55 208 Z " />
<glyph glyph-name="scircumflex" unicode="&#x15d;" horiz-adv-x="477" d="M328 536 L385 536 L283 719 L187 719 L85 536 L142 536 L235 660 L328 536 Z M41 152 L41 123 C41 57 94 -7 238 -7 C378 -7 434 53 434 128 C434 220 349 247 261 264 C193 277 127 287 127 342 C127 391 182 413 236 413 C319 413 352 384 352 334 L352 312 L422 312 L422 346 C422 417 371 474 233 474 C129 474 53 423 53 343 C53 242 147 220 231 205 C298 193 360 177 360 129 C360 83 322 55 236 55 C151 55 111 93 111 141 L111 152 L41 152 Z " />
<glyph glyph-name="Scedilla" unicode="&#x15e;" horiz-adv-x="582" d="M284 -172 C341 -172 379 -146 379 -99 C379 -41 328 -30 304 -30 L315 -6 C470 1 537 82 537 178 C537 431 129 339 129 514 C129 579 190 625 285 625 C399 625 439 568 439 506 L439 482 L516 482 L516 520 C516 622 435 694 284 694 C129 694 50 607 50 512 C50 265 458 361 458 172 C458 101 401 62 288 62 C195 62 132 108 132 181 L132 208 L53 208 L53 166 C53 81 118 1 266 -6 L245 -53 L263 -66 C263 -66 272 -60 287 -60 C314 -60 329 -75 329 -94 C329 -115 312 -128 282 -128 C249 -128 228 -105 227 -105 L199 -141 C199 -141 230 -172 284 -172 L284 -172 Z " />
<glyph glyph-name="scedilla" unicode="&#x15f;" horiz-adv-x="476" d="M223 -172 C280 -172 318 -146 318 -99 C318 -41 267 -30 243 -30 L254 -6 C382 -2 434 56 434 128 C434 220 349 247 261 264 C193 277 127 287 127 342 C127 391 182 413 236 413 C319 413 352 384 352 334 L352 312 L422 312 L422 346 C422 417 371 474 233 474 C129 474 53 423 53 343 C53 242 147 220 231 205 C298 193 360 177 360 129 C360 83 322 55 236 55 C151 55 111 93 111 141 L111 152 L41 152 L41 123 C41 62 86 3 206 -6 L184 -53 L202 -66 C202 -66 211 -60 226 -60 C253 -60 268 -75 268 -94 C268 -115 251 -128 221 -128 C188 -128 167 -105 166 -105 L138 -141 C138 -141 169 -172 223 -172 L223 -172 Z " />
<glyph glyph-name="Scaron" unicode="&#x160;" horiz-adv-x="583" d="M199 908 L141 908 L244 725 L339 725 L443 908 L384 908 L291 784 L199 908 Z M55 208 L55 166 C55 77 127 -7 291 -7 C465 -7 539 77 539 178 C539 431 131 339 131 514 C131 579 192 625 287 625 C401 625 441 568 441 506 L441 482 L518 482 L518 520 C518 622 437 694 286 694 C131 694 52 607 52 512 C52 265 460 361 460 172 C460 101 403 62 290 62 C197 62 134 108 134 181 L134 208 L55 208 Z " />
<glyph glyph-name="scaron" unicode="&#x161;" horiz-adv-x="477" d="M151 719 L93 719 L196 536 L291 536 L395 719 L336 719 L243 595 L151 719 Z M41 152 L41 123 C41 57 94 -7 238 -7 C378 -7 434 53 434 128 C434 220 349 247 261 264 C193 277 127 287 127 342 C127 391 182 413 236 413 C319 413 352 384 352 334 L352 312 L422 312 L422 346 C422 417 371 474 233 474 C129 474 53 423 53 343 C53 242 147 220 231 205 C298 193 360 177 360 129 C360 83 322 55 236 55 C151 55 111 93 111 141 L111 152 L41 152 Z " />
<glyph glyph-name="Tcommaaccent" unicode="&#x162;" horiz-adv-x="652" d="M305 -213 C336 -203 383 -181 383 -113 C383 -69 359 -44 326 -44 C299 -44 277 -63 277 -90 C277 -117 296 -136 320 -136 C333 -136 338 -131 338 -131 C338 -131 340 -134 340 -140 C340 -169 307 -182 295 -186 L305 -213 Z M456 0 L456 62 L365 62 L365 623 L568 623 L568 515 L630 515 L627 688 L25 688 L22 515 L84 515 L84 623 L288 623 L288 62 L198 62 L198 0 L456 0 Z " />
<glyph glyph-name="tcommaaccent" unicode="&#x163;" horiz-adv-x="346" d="M151 -213 C182 -203 229 -181 229 -113 C229 -69 205 -44 172 -44 C145 -44 123 -63 123 -90 C123 -117 142 -136 166 -136 C179 -136 184 -131 184 -131 C184 -131 186 -134 186 -140 C186 -169 153 -182 141 -186 L151 -213 Z M105 592 L92 467 L21 467 L21 407 L92 407 L92 151 C92 45 143 -7 233 -7 C291 -7 329 9 329 9 L329 72 C329 72 297 57 245 57 C196 57 167 89 167 155 L167 407 L315 407 L315 467 L167 467 L167 592 L105 592 Z " />
<glyph glyph-name="Tcaron" unicode="&#x164;" horiz-adv-x="652" d="M234 915 L176 915 L279 732 L374 732 L478 915 L419 915 L326 791 L234 915 Z M456 0 L456 62 L365 62 L365 623 L568 623 L568 515 L630 515 L627 688 L25 688 L22 515 L84 515 L84 623 L288 623 L288 62 L198 62 L198 0 L456 0 Z " />
<glyph glyph-name="tcaron" unicode="&#x165;" horiz-adv-x="346" d="M253 511 C284 521 331 543 331 611 C331 655 307 680 274 680 C247 680 225 661 225 634 C225 607 244 588 268 588 C281 588 286 593 286 593 C286 593 288 590 288 584 C288 555 255 542 243 538 L253 511 Z M105 592 L92 467 L21 467 L21 407 L92 407 L92 151 C92 45 143 -7 233 -7 C291 -7 329 9 329 9 L329 72 C329 72 297 57 245 57 C196 57 167 89 167 155 L167 407 L315 407 L315 467 L167 467 L167 592 L105 592 Z " />
<glyph glyph-name="Tbar" unicode="&#x166;" horiz-adv-x="654" d="M457 0 L457 62 L366 62 L366 293 L489 293 L489 355 L366 355 L366 623 L569 623 L569 515 L631 515 L628 688 L26 688 L23 515 L85 515 L85 623 L289 623 L289 355 L162 355 L162 293 L289 293 L289 62 L199 62 L199 0 L457 0 Z " />
<glyph glyph-name="tbar" unicode="&#x167;" horiz-adv-x="346" d="M106 592 L93 467 L22 467 L22 407 L93 407 L93 299 L30 299 L30 238 L93 238 L93 151 C93 45 144 -7 234 -7 C292 -7 330 9 330 9 L330 72 C330 72 298 57 246 57 C197 57 168 89 168 155 L168 238 L279 238 L279 299 L168 299 L168 407 L316 407 L316 467 L168 467 L168 592 L106 592 Z " />
<glyph glyph-name="Utilde" unicode="&#x168;" horiz-adv-x="757" d="M459 735 C514 735 544 772 558 812 L519 837 C497 811 481 798 454 798 C401 798 358 843 293 843 C238 843 208 806 194 766 L233 741 C254 767 271 780 298 780 C348 780 395 735 459 735 L459 735 Z M564 253 C564 139 512 62 380 62 C240 62 195 145 195 259 L195 626 L286 626 L286 688 L28 688 L28 626 L118 626 L118 258 C118 82 210 -7 380 -7 C548 -7 639 82 639 258 L639 626 L730 626 L730 688 L474 688 L474 626 L564 626 L564 253 Z " />
<glyph glyph-name="utilde" unicode="&#x169;" horiz-adv-x="592" d="M360 525 C415 525 445 562 459 602 L420 627 C398 601 382 588 355 588 C302 588 259 633 194 633 C139 633 109 596 95 556 L134 531 C155 557 172 570 199 570 C249 570 296 525 360 525 L360 525 Z M431 94 L439 0 L565 0 L565 62 L496 62 L496 467 L355 467 L355 405 L421 405 L421 160 C418 150 393 57 284 57 C195 57 163 112 163 187 L163 467 L20 467 L20 405 L88 405 L88 175 C88 70 143 -7 265 -7 C403 -7 429 94 429 94 L431 94 Z " />
<glyph glyph-name="Umacron" unicode="&#x16a;" horiz-adv-x="757" d="M536 739 L536 802 L220 802 L220 739 L536 739 Z M564 253 C564 139 512 62 380 62 C240 62 195 145 195 259 L195 626 L286 626 L286 688 L28 688 L28 626 L118 626 L118 258 C118 82 210 -7 380 -7 C548 -7 639 82 639 258 L639 626 L730 626 L730 688 L474 688 L474 626 L564 626 L564 253 Z " />
<glyph glyph-name="umacron" unicode="&#x16b;" horiz-adv-x="592" d="M429 543 L429 606 L113 606 L113 543 L429 543 Z M431 94 L439 0 L565 0 L565 62 L496 62 L496 467 L355 467 L355 405 L421 405 L421 160 C418 150 393 57 284 57 C195 57 163 112 163 187 L163 467 L20 467 L20 405 L88 405 L88 175 C88 70 143 -7 265 -7 C403 -7 429 94 429 94 L431 94 Z " />
<glyph glyph-name="Ubreve" unicode="&#x16c;" horiz-adv-x="757" d="M388 730 C485 730 531 798 531 888 L468 888 C468 830 444 787 388 787 C331 787 307 830 307 888 L244 888 C244 798 290 730 388 730 L388 730 Z M564 253 C564 139 512 62 380 62 C240 62 195 145 195 259 L195 626 L286 626 L286 688 L28 688 L28 626 L118 626 L118 258 C118 82 210 -7 380 -7 C548 -7 639 82 639 258 L639 626 L730 626 L730 688 L474 688 L474 626 L564 626 L564 253 Z " />
<glyph glyph-name="ubreve" unicode="&#x16d;" horiz-adv-x="592" d="M279 531 C376 531 422 599 422 689 L359 689 C359 631 335 588 279 588 C222 588 198 631 198 689 L135 689 C135 599 181 531 279 531 L279 531 Z M431 94 L439 0 L565 0 L565 62 L496 62 L496 467 L355 467 L355 405 L421 405 L421 160 C418 150 393 57 284 57 C195 57 163 112 163 187 L163 467 L20 467 L20 405 L88 405 L88 175 C88 70 143 -7 265 -7 C403 -7 429 94 429 94 L431 94 Z " />
<glyph glyph-name="Uring" unicode="&#x16e;" horiz-adv-x="755" d="M467 791 C467 840 427 880 378 880 C329 880 289 840 289 791 C289 742 329 702 378 702 C427 702 467 742 467 791 L467 791 Z M418 791 C418 768 401 751 378 751 C355 751 338 768 338 791 C338 813 355 831 378 831 C401 831 418 813 418 791 L418 791 Z M564 253 C564 139 512 62 380 62 C240 62 195 145 195 259 L195 626 L286 626 L286 688 L28 688 L28 626 L118 626 L118 258 C118 82 210 -7 380 -7 C548 -7 639 82 639 258 L639 626 L730 626 L730 688 L474 688 L474 626 L564 626 L564 253 Z " />
<glyph glyph-name="uring" unicode="&#x16f;" horiz-adv-x="592" d="M363 615 C363 664 323 704 274 704 C225 704 185 664 185 615 C185 566 225 526 274 526 C323 526 363 566 363 615 L363 615 Z M314 615 C314 592 297 575 274 575 C251 575 234 592 234 615 C234 637 251 655 274 655 C297 655 314 637 314 615 L314 615 Z M431 94 L439 0 L565 0 L565 62 L496 62 L496 467 L355 467 L355 405 L421 405 L421 160 C418 150 393 57 284 57 C195 57 163 112 163 187 L163 467 L20 467 L20 405 L88 405 L88 175 C88 70 143 -7 265 -7 C403 -7 429 94 429 94 L431 94 Z " />
<glyph glyph-name="Uhungarumlaut" unicode="&#x170;" horiz-adv-x="757" d="M444 916 L345 916 L261 733 L319 733 L444 916 Z M575 916 L476 916 L391 733 L450 733 L575 916 Z M564 253 C564 139 512 62 380 62 C240 62 195 145 195 259 L195 626 L286 626 L286 688 L28 688 L28 626 L118 626 L118 258 C118 82 210 -7 380 -7 C548 -7 639 82 639 258 L639 626 L730 626 L730 688 L474 688 L474 626 L564 626 L564 253 Z " />
<glyph glyph-name="uhungarumlaut" unicode="&#x171;" horiz-adv-x="592" d="M342 719 L243 719 L159 536 L217 536 L342 719 Z M473 719 L374 719 L289 536 L348 536 L473 719 Z M431 94 L439 0 L565 0 L565 62 L496 62 L496 467 L355 467 L355 405 L421 405 L421 160 C418 150 393 57 284 57 C195 57 163 112 163 187 L163 467 L20 467 L20 405 L88 405 L88 175 C88 70 143 -7 265 -7 C403 -7 429 94 429 94 L431 94 Z " />
<glyph glyph-name="Uogonek" unicode="&#x172;" horiz-adv-x="758" d="M564 253 C564 139 512 62 380 62 C240 62 195 145 195 259 L195 626 L286 626 L286 688 L28 688 L28 626 L118 626 L118 258 C118 98 194 10 335 -5 C309 -22 282 -50 282 -88 C282 -135 314 -161 362 -161 C398 -161 426 -144 441 -130 L423 -95 C412 -102 400 -115 370 -115 C347 -115 332 -101 332 -79 C332 -46 363 -21 386 -7 C550 -5 639 84 639 258 L639 626 L730 626 L730 688 L474 688 L474 626 L564 626 L564 253 Z " />
<glyph glyph-name="uogonek" unicode="&#x173;" horiz-adv-x="593" d="M433 94 L441 0 L458 0 C430 -17 398 -46 398 -88 C398 -135 430 -161 478 -161 C514 -161 542 -144 557 -130 L539 -95 C528 -102 516 -115 486 -115 C463 -115 448 -101 448 -79 C448 -39 492 -11 514 0 L567 0 L567 62 L498 62 L498 467 L357 467 L357 405 L423 405 L423 160 C420 150 395 57 286 57 C197 57 165 112 165 187 L165 467 L22 467 L22 405 L90 405 L90 175 C90 70 145 -7 267 -7 C405 -7 431 94 431 94 L433 94 Z " />
<glyph glyph-name="Wcircumflex" unicode="&#x174;" horiz-adv-x="1016" d="M601 732 L658 732 L556 915 L460 915 L358 732 L415 732 L508 856 L601 732 Z M369 0 L502 531 C504 538 505 554 505 556 L511 556 C511 554 513 538 515 531 L643 0 L738 0 L940 626 L1017 626 L1017 688 L776 688 L776 626 L858 626 L708 127 C707 123 697 86 697 86 L690 86 C690 86 682 123 681 127 L542 688 L478 688 L335 127 C334 123 327 86 327 86 L320 86 C320 86 310 123 309 127 L161 626 L243 626 L243 688 L-1 688 L-1 626 L76 626 L276 0 L369 0 Z " />
<glyph glyph-name="wcircumflex" unicode="&#x175;" horiz-adv-x="787" d="M483 536 L540 536 L438 719 L342 719 L240 536 L297 536 L390 660 L483 536 Z M294 0 L391 362 L395 362 L493 0 L577 0 L711 405 L779 405 L779 467 L578 467 L578 405 L636 405 L537 83 L533 83 L429 467 L359 467 L257 83 L252 83 L153 405 L210 405 L210 467 L8 467 L8 405 L76 405 L210 0 L294 0 Z " />
<glyph glyph-name="Ycircumflex" unicode="&#x176;" horiz-adv-x="675" d="M432 731 L489 731 L387 914 L291 914 L189 731 L246 731 L339 855 L432 731 Z M377 266 L599 626 L677 626 L677 688 L434 688 L434 626 L517 626 L342 336 L335 336 L164 626 L245 626 L245 688 L-1 688 L-1 626 L76 626 L299 266 L299 62 L208 62 L208 0 L468 0 L468 62 L377 62 L377 266 Z " />
<glyph glyph-name="ycircumflex" unicode="&#x177;" horiz-adv-x="568" d="M383 536 L440 536 L338 719 L242 719 L140 536 L197 536 L290 660 L383 536 Z M258 7 L252 -9 C215 -94 125 -177 24 -215 L48 -281 C201 -224 286 -105 321 -15 L494 405 L562 405 L562 467 L361 467 L361 405 L419 405 L288 83 L282 83 L152 405 L208 405 L208 467 L6 467 L6 405 L74 405 L241 7 L258 7 Z " />
<glyph glyph-name="Ydieresis" unicode="&#x178;" horiz-adv-x="675" d="M303 778 C303 804 282 825 256 825 C230 825 210 804 210 778 C210 752 230 731 256 731 C282 731 303 752 303 778 L303 778 Z M470 778 C470 804 448 825 422 825 C396 825 375 804 375 778 C375 752 396 731 422 731 C448 731 470 752 470 778 L470 778 Z M377 266 L599 626 L677 626 L677 688 L434 688 L434 626 L517 626 L342 336 L335 336 L164 626 L245 626 L245 688 L-1 688 L-1 626 L76 626 L299 266 L299 62 L208 62 L208 0 L468 0 L468 62 L377 62 L377 266 Z " />
<glyph glyph-name="Zacute" unicode="&#x179;" horiz-adv-x="630" d="M427 943 L329 943 L234 760 L292 760 L427 943 Z M578 0 L581 173 L520 173 L520 65 L149 65 L581 631 L581 688 L52 688 L50 515 L110 515 L110 623 L482 623 L49 57 L49 0 L578 0 Z " />
<glyph glyph-name="zacute" unicode="&#x17a;" horiz-adv-x="526" d="M379 719 L281 719 L186 536 L244 536 L379 719 Z M477 0 L477 149 L420 149 L420 60 L137 60 L477 411 L477 467 L49 467 L49 320 L106 320 L106 407 L383 407 L49 66 L49 0 L477 0 Z " />
<glyph glyph-name="Zdotaccent" unicode="&#x17b;" horiz-adv-x="630" d="M376 784 C376 813 354 835 325 835 C295 835 274 813 274 784 C274 755 295 733 325 733 C354 733 376 755 376 784 L376 784 Z M578 0 L581 173 L520 173 L520 65 L149 65 L581 631 L581 688 L52 688 L50 515 L110 515 L110 623 L482 623 L49 57 L49 0 L578 0 Z " />
<glyph glyph-name="zdotaccent" unicode="&#x17c;" horiz-adv-x="526" d="M328 619 C328 648 306 670 277 670 C247 670 226 648 226 619 C226 590 247 568 277 568 C306 568 328 590 328 619 L328 619 Z M477 0 L477 149 L420 149 L420 60 L137 60 L477 411 L477 467 L49 467 L49 320 L106 320 L106 407 L383 407 L49 66 L49 0 L477 0 Z " />
<glyph glyph-name="Zcaron" unicode="&#x17d;" horiz-adv-x="630" d="M238 915 L180 915 L283 732 L378 732 L482 915 L423 915 L330 791 L238 915 Z M578 0 L581 173 L520 173 L520 65 L149 65 L581 631 L581 688 L52 688 L50 515 L110 515 L110 623 L482 623 L49 57 L49 0 L578 0 Z " />
<glyph glyph-name="zcaron" unicode="&#x17e;" horiz-adv-x="526" d="M201 719 L143 719 L246 536 L341 536 L445 719 L386 719 L293 595 L201 719 Z M477 0 L477 149 L420 149 L420 60 L137 60 L477 411 L477 467 L49 467 L49 320 L106 320 L106 407 L383 407 L49 66 L49 0 L477 0 Z " />
<glyph glyph-name="longs" unicode="&#x17f;" horiz-adv-x="317" d="M285 0 L285 62 L182 62 L182 586 C182 658 216 691 274 691 C317 691 344 676 344 676 L344 739 C344 739 313 755 263 755 C165 755 107 699 107 587 L107 467 L36 467 L36 407 L107 407 L107 62 L38 62 L38 0 L285 0 Z " />
<glyph glyph-name="florin" unicode="&#x192;" horiz-adv-x="360" d="M185 408 L332 408 L332 467 L185 467 L185 586 C185 658 219 691 277 691 C319 691 346 676 346 676 L346 739 C346 739 315 755 266 755 C167 755 110 699 110 587 L110 467 L39 467 L39 408 L110 408 L110 -116 C110 -188 75 -221 18 -221 C-25 -221 -52 -206 -52 -206 L-52 -269 C-52 -269 -21 -285 29 -285 C127 -285 185 -229 185 -117 L185 408 Z " />
<glyph glyph-name="AEacute" unicode="&#x1fc;" horiz-adv-x="981" d="M926 0 L929 172 L868 172 L858 65 L566 65 L566 315 L820 315 L820 381 L566 381 L566 623 L859 623 L868 515 L930 515 L927 688 L265 688 L265 636 L342 627 L69 62 L-6 52 L-6 0 L231 0 L231 52 L148 62 C148 62 187 138 234 233 L489 233 L489 62 L400 52 L400 0 L926 0 Z M421 625 L489 625 L489 299 L267 299 L421 625 Z M661 945 L563 945 L468 762 L526 762 L661 945 Z " />
<glyph glyph-name="aeacute" unicode="&#x1fd;" horiz-adv-x="844" d="M579 719 L481 719 L386 536 L444 536 L579 719 Z M805 260 C805 379 721 474 600 474 C527 474 464 446 424 394 C392 448 329 474 244 474 C111 474 51 403 51 335 L51 312 L120 312 L120 322 C120 374 161 413 242 413 C327 413 373 379 373 299 L373 260 L255 260 C124 260 42 215 42 128 C42 50 107 -7 203 -7 C366 -7 411 98 411 98 L412 98 C451 33 520 -7 601 -7 C733 -7 787 53 787 53 L760 107 C760 107 717 56 609 56 C529 56 459 105 450 212 L800 212 C800 212 805 232 805 260 L805 260 Z M373 133 C373 133 327 52 219 52 C159 52 116 82 116 128 C116 182 178 206 260 206 L373 206 L373 133 Z M601 411 C663 411 733 370 735 268 L449 268 C457 362 524 411 601 411 L601 411 Z " />
<glyph glyph-name="Oslashacute" unicode="&#x1fe;" horiz-adv-x="706" d="M656 339 C656 485 612 584 537 640 L565 698 L501 729 L474 674 C438 687 397 694 353 694 C170 694 51 580 51 339 C51 197 93 101 167 47 L136 -18 L200 -49 L230 13 C267 0 308 -7 353 -7 C537 -7 656 103 656 339 L656 339 Z M576 339 C576 134 484 62 353 62 C319 62 289 66 261 77 L503 570 C549 525 576 451 576 339 L576 339 Z M131 339 C131 545 222 625 353 625 C385 625 415 620 442 609 L201 115 C157 158 131 229 131 339 L131 339 Z M525 948 L427 948 L332 765 L390 765 L525 948 Z " />
<glyph glyph-name="oslashacute" unicode="&#x1ff;" horiz-adv-x="551" d="M167 -47 L193 5 C218 -3 246 -7 276 -7 C412 -7 509 79 509 234 C509 329 470 398 410 437 L430 476 L377 505 L355 462 C331 470 304 474 276 474 C146 474 43 389 43 234 C43 139 79 70 138 31 L114 -18 L167 -47 Z M276 56 C257 56 240 59 223 64 L378 373 C411 344 434 298 434 234 C434 112 358 56 276 56 L276 56 Z M117 234 C117 356 200 411 276 411 C292 411 309 408 325 403 L170 94 C138 123 117 169 117 234 L117 234 Z M413 719 L315 719 L220 536 L278 536 L413 719 Z " />
<glyph glyph-name="Scommaaccent" unicode="&#x218;" horiz-adv-x="583" d="M273 -213 C304 -203 351 -181 351 -113 C351 -69 327 -44 294 -44 C267 -44 245 -63 245 -90 C245 -117 264 -136 288 -136 C301 -136 306 -131 306 -131 C306 -131 308 -134 308 -140 C308 -169 275 -182 263 -186 L273 -213 Z M55 208 L55 166 C55 77 127 -7 291 -7 C465 -7 539 77 539 178 C539 431 131 339 131 514 C131 579 192 625 287 625 C401 625 441 568 441 506 L441 482 L518 482 L518 520 C518 622 437 694 286 694 C131 694 52 607 52 512 C52 265 460 361 460 172 C460 101 403 62 290 62 C197 62 134 108 134 181 L134 208 L55 208 Z " />
<glyph glyph-name="scommaaccent" unicode="&#x219;" horiz-adv-x="477" d="M215 -213 C246 -203 293 -181 293 -113 C293 -69 269 -44 236 -44 C209 -44 187 -63 187 -90 C187 -117 206 -136 230 -136 C243 -136 248 -131 248 -131 C248 -131 250 -134 250 -140 C250 -169 217 -182 205 -186 L215 -213 Z M41 152 L41 123 C41 57 94 -7 238 -7 C378 -7 434 53 434 128 C434 220 349 247 261 264 C193 277 127 287 127 342 C127 391 182 413 236 413 C319 413 352 384 352 334 L352 312 L422 312 L422 346 C422 417 371 474 233 474 C129 474 53 423 53 343 C53 242 147 220 231 205 C298 193 360 177 360 129 C360 83 322 55 236 55 C151 55 111 93 111 141 L111 152 L41 152 Z " />
<glyph glyph-name="dotlessj" unicode="&#x237;" horiz-adv-x="256" d="M100 -84 C100 -156 55 -190 -6 -213 L19 -282 C98 -259 175 -202 175 -97 L175 467 L31 467 L31 405 L100 405 L100 -84 Z " />
<glyph glyph-name="circumflex" unicode="&#x2c6;" horiz-adv-x="407" d="M296 536 L353 536 L251 719 L155 719 L53 536 L110 536 L203 660 L296 536 Z " />
<glyph glyph-name="caron" unicode="&#x2c7;" horiz-adv-x="407" d="M129 719 L71 719 L174 536 L269 536 L373 719 L314 719 L221 595 L129 719 Z " />
<glyph glyph-name="breve" unicode="&#x2d8;" horiz-adv-x="348" d="M185 531 C282 531 328 599 328 689 L265 689 C265 631 241 588 185 588 C128 588 104 631 104 689 L41 689 C41 599 87 531 185 531 L185 531 Z " />
<glyph glyph-name="dotaccent" unicode="&#x2d9;" horiz-adv-x="172" d="M138 619 C138 648 116 670 87 670 C57 670 36 648 36 619 C36 590 57 568 87 568 C116 568 138 590 138 619 L138 619 Z " />
<glyph glyph-name="ring" unicode="&#x2da;" horiz-adv-x="226" d="M202 615 C202 664 162 704 113 704 C64 704 24 664 24 615 C24 566 64 526 113 526 C162 526 202 566 202 615 L202 615 Z M153 615 C153 592 136 575 113 575 C90 575 73 592 73 615 C73 637 90 655 113 655 C136 655 153 637 153 615 L153 615 Z " />
<glyph glyph-name="ogonek" unicode="&#x2db;" horiz-adv-x="226" d="M175 -95 C164 -102 152 -115 122 -115 C99 -115 84 -101 84 -79 C84 -28 160 5 163 6 L133 19 C133 19 34 -16 34 -88 C34 -135 66 -161 114 -161 C150 -161 178 -144 193 -130 L175 -95 Z " />
<glyph glyph-name="tilde" unicode="&#x2dc;" horiz-adv-x="378" d="M277 525 C332 525 362 562 376 602 L337 627 C315 601 299 588 272 588 C219 588 176 633 111 633 C56 633 26 596 12 556 L51 531 C72 557 89 570 116 570 C166 570 213 525 277 525 L277 525 Z " />
<glyph glyph-name="hungarumlaut" unicode="&#x2dd;" horiz-adv-x="427" d="M234 719 L135 719 L51 536 L109 536 L234 719 Z M365 719 L266 719 L181 536 L240 536 L365 719 Z " />
<glyph glyph-name="pi" unicode="&#x3c0;" horiz-adv-x="536" d="M28 467 L28 408 L99 408 L99 0 L174 0 L174 408 L362 408 L362 0 L437 0 L437 408 L508 408 L508 467 L28 467 Z " />
<glyph glyph-name="Wgrave" unicode="&#x1e80;" horiz-adv-x="1016" d="M485 731 L542 731 L448 914 L349 914 L485 731 Z M369 0 L502 531 C504 538 505 554 505 556 L511 556 C511 554 513 538 515 531 L643 0 L738 0 L940 626 L1017 626 L1017 688 L776 688 L776 626 L858 626 L708 127 C707 123 697 86 697 86 L690 86 C690 86 682 123 681 127 L542 688 L478 688 L335 127 C334 123 327 86 327 86 L320 86 C320 86 310 123 309 127 L161 626 L243 626 L243 688 L-1 688 L-1 626 L76 626 L276 0 L369 0 Z " />
<glyph glyph-name="wgrave" unicode="&#x1e81;" horiz-adv-x="787" d="M386 536 L443 536 L349 719 L250 719 L386 536 Z M294 0 L391 362 L395 362 L493 0 L577 0 L711 405 L779 405 L779 467 L578 467 L578 405 L636 405 L537 83 L533 83 L429 467 L359 467 L257 83 L252 83 L153 405 L210 405 L210 467 L8 467 L8 405 L76 405 L210 0 L294 0 Z " />
<glyph glyph-name="Wacute" unicode="&#x1e82;" horiz-adv-x="1016" d="M677 913 L579 913 L484 730 L542 730 L677 913 Z M369 0 L502 531 C504 538 505 554 505 556 L511 556 C511 554 513 538 515 531 L643 0 L738 0 L940 626 L1017 626 L1017 688 L776 688 L776 626 L858 626 L708 127 C707 123 697 86 697 86 L690 86 C690 86 682 123 681 127 L542 688 L478 688 L335 127 C334 123 327 86 327 86 L320 86 C320 86 310 123 309 127 L161 626 L243 626 L243 688 L-1 688 L-1 626 L76 626 L276 0 L369 0 Z " />
<glyph glyph-name="wacute" unicode="&#x1e83;" horiz-adv-x="787" d="M564 719 L466 719 L371 536 L429 536 L564 719 Z M294 0 L391 362 L395 362 L493 0 L577 0 L711 405 L779 405 L779 467 L578 467 L578 405 L636 405 L537 83 L533 83 L429 467 L359 467 L257 83 L252 83 L153 405 L210 405 L210 467 L8 467 L8 405 L76 405 L210 0 L294 0 Z " />
<glyph glyph-name="Wdieresis" unicode="&#x1e84;" horiz-adv-x="1016" d="M472 776 C472 802 451 823 425 823 C399 823 379 802 379 776 C379 750 399 729 425 729 C451 729 472 750 472 776 L472 776 Z M639 776 C639 802 617 823 591 823 C565 823 544 802 544 776 C544 750 565 729 591 729 C617 729 639 750 639 776 L639 776 Z M369 0 L502 531 C504 538 505 554 505 556 L511 556 C511 554 513 538 515 531 L643 0 L738 0 L940 626 L1017 626 L1017 688 L776 688 L776 626 L858 626 L708 127 C707 123 697 86 697 86 L690 86 C690 86 682 123 681 127 L542 688 L478 688 L335 127 C334 123 327 86 327 86 L320 86 C320 86 310 123 309 127 L161 626 L243 626 L243 688 L-1 688 L-1 626 L76 626 L276 0 L369 0 Z " />
<glyph glyph-name="wdieresis" unicode="&#x1e85;" horiz-adv-x="787" d="M362 578 C362 604 341 625 315 625 C289 625 269 604 269 578 C269 552 289 531 315 531 C341 531 362 552 362 578 L362 578 Z M529 578 C529 604 507 625 481 625 C455 625 434 604 434 578 C434 552 455 531 481 531 C507 531 529 552 529 578 L529 578 Z M294 0 L391 362 L395 362 L493 0 L577 0 L711 405 L779 405 L779 467 L578 467 L578 405 L636 405 L537 83 L533 83 L429 467 L359 467 L257 83 L252 83 L153 405 L210 405 L210 467 L8 467 L8 405 L76 405 L210 0 L294 0 Z " />
<glyph glyph-name="Ygrave" unicode="&#x1ef2;" horiz-adv-x="675" d="M325 731 L382 731 L288 914 L189 914 L325 731 Z M377 266 L599 626 L677 626 L677 688 L434 688 L434 626 L517 626 L342 336 L335 336 L164 626 L245 626 L245 688 L-1 688 L-1 626 L76 626 L299 266 L299 62 L208 62 L208 0 L468 0 L468 62 L377 62 L377 266 Z " />
<glyph glyph-name="ygrave" unicode="&#x1ef3;" horiz-adv-x="568" d="M296 536 L353 536 L259 719 L160 719 L296 536 Z M258 7 L252 -9 C215 -94 125 -177 24 -215 L48 -281 C201 -224 286 -105 321 -15 L494 405 L562 405 L562 467 L361 467 L361 405 L419 405 L288 83 L282 83 L152 405 L208 405 L208 467 L6 467 L6 405 L74 405 L241 7 L258 7 Z " />
<glyph glyph-name="endash" unicode="&#x2013;" horiz-adv-x="565" d="M501 257 L501 327 L65 327 L65 257 L501 257 Z " />
<glyph glyph-name="emdash" unicode="&#x2014;" horiz-adv-x="877" d="M812 257 L812 327 L65 327 L65 257 L812 257 Z " />
<glyph glyph-name="quoteleft" unicode="&#x2018;" horiz-adv-x="203" d="M125 784 C95 774 49 745 49 662 C49 618 72 593 106 593 C133 593 154 613 154 639 C154 666 135 685 112 685 C98 685 93 680 93 680 C93 680 91 683 91 689 C91 732 124 753 136 757 L125 784 Z " />
<glyph glyph-name="quoteright" unicode="&#x2019;" horiz-adv-x="203" d="M80 554 C110 564 156 593 156 676 C156 720 133 745 99 745 C72 745 51 725 51 699 C51 672 70 653 93 653 C107 653 112 658 112 658 C112 658 114 655 114 649 C114 606 81 585 69 581 L80 554 Z " />
<glyph glyph-name="quotesinglbase" unicode="&#x201a;" horiz-adv-x="230" d="M91 -106 C121 -96 167 -67 167 16 C167 60 144 85 110 85 C83 85 62 65 62 39 C62 12 81 -7 104 -7 C118 -7 123 -2 123 -2 C123 -2 125 -5 125 -11 C125 -54 92 -75 80 -79 L91 -106 Z " />
<glyph glyph-name="quotedblleft" unicode="&#x201c;" horiz-adv-x="363" d="M125 784 C95 774 49 745 49 662 C49 618 72 593 106 593 C133 593 154 613 154 639 C154 666 135 685 112 685 C98 685 93 680 93 680 C93 680 91 683 91 689 C91 732 124 753 136 757 L125 784 Z M286 784 C256 774 210 745 210 662 C210 618 233 593 267 593 C294 593 315 613 315 639 C315 666 296 685 273 685 C259 685 254 680 254 680 C254 680 252 683 252 689 C252 732 285 753 297 757 L286 784 Z " />
<glyph glyph-name="quotedblright" unicode="&#x201d;" horiz-adv-x="353" d="M80 554 C110 564 156 593 156 676 C156 720 133 745 99 745 C72 745 51 725 51 699 C51 672 70 653 93 653 C107 653 112 658 112 658 C112 658 114 655 114 649 C114 606 81 585 69 581 L80 554 Z M229 554 C259 564 305 593 305 676 C305 720 282 745 248 745 C221 745 200 725 200 699 C200 672 219 653 242 653 C256 653 261 658 261 658 C261 658 263 655 263 649 C263 606 230 585 218 581 L229 554 Z " />
<glyph glyph-name="quotedblbase" unicode="&#x201e;" horiz-adv-x="379" d="M91 -106 C121 -96 167 -67 167 16 C167 60 144 85 110 85 C83 85 62 65 62 39 C62 12 81 -7 104 -7 C118 -7 123 -2 123 -2 C123 -2 125 -5 125 -11 C125 -54 92 -75 80 -79 L91 -106 Z M241 -106 C271 -96 317 -67 317 16 C317 60 294 85 260 85 C233 85 212 65 212 39 C212 12 231 -7 254 -7 C268 -7 273 -2 273 -2 C273 -2 275 -5 275 -11 C275 -54 242 -75 230 -79 L241 -106 Z " />
<glyph glyph-name="dagger" unicode="&#x2020;" horiz-adv-x="402" d="M230 -131 L240 472 L365 472 L365 537 L240 537 L240 760 L168 760 L168 537 L37 537 L37 472 L168 472 L176 -131 L230 -131 Z " />
<glyph glyph-name="daggerdbl" unicode="&#x2021;" horiz-adv-x="421" d="M375 105 L375 170 L247 170 L250 457 L375 457 L375 523 L250 523 L250 760 L178 760 L178 523 L48 523 L48 457 L178 457 L181 170 L48 170 L48 105 L182 105 L187 -131 L241 -131 L245 105 L375 105 Z " />
<glyph glyph-name="bullet" unicode="&#x2022;" horiz-adv-x="357" d="M178 234 C238 234 278 273 278 335 C278 395 238 437 178 437 C115 437 80 395 80 335 C80 273 115 234 178 234 L178 234 Z " />
<glyph glyph-name="ellipsis" unicode="&#x2026;" horiz-adv-x="479" d="M156 41 C156 67 136 89 108 89 C82 89 61 67 61 41 C61 14 82 -7 108 -7 C136 -7 156 14 156 41 L156 41 Z M288 41 C288 67 267 89 239 89 C213 89 191 67 191 41 C191 14 213 -7 239 -7 C267 -7 288 14 288 41 L288 41 Z M418 41 C418 67 397 89 370 89 C343 89 322 67 322 41 C322 14 343 -7 370 -7 C397 -7 418 14 418 41 L418 41 Z " />
<glyph glyph-name="perthousand" unicode="&#x2030;" horiz-adv-x="1131" d="M211 -30 L639 717 L587 748 L160 1 L211 -30 Z M325 515 C325 633 268 694 180 694 C92 694 35 633 35 515 C35 396 92 338 180 338 C268 338 325 396 325 515 L325 515 Z M100 515 C100 600 133 635 180 635 C227 635 260 600 260 515 C260 429 227 397 180 397 C133 397 100 429 100 515 L100 515 Z M743 170 C743 288 685 349 597 349 C510 349 452 288 452 170 C452 51 510 -7 597 -7 C685 -7 743 51 743 170 L743 170 Z M517 170 C517 255 550 290 597 290 C644 290 678 255 678 170 C678 84 644 52 597 52 C550 52 517 84 517 170 L517 170 Z M1098 170 C1098 288 1041 349 952 349 C865 349 807 288 807 170 C807 51 865 -7 952 -7 C1041 -7 1098 51 1098 170 L1098 170 Z M872 170 C872 255 905 290 952 290 C999 290 1033 255 1033 170 C1033 84 999 52 952 52 C905 52 872 84 872 170 L872 170 Z " />
<glyph glyph-name="guilsinglleft" unicode="&#x2039;" horiz-adv-x="287" d="M117 240 L243 389 L190 431 L49 266 L49 214 L190 49 L243 91 L117 240 Z " />
<glyph glyph-name="guilsinglright" unicode="&#x203a;" horiz-adv-x="287" d="M45 91 L97 49 L239 214 L239 266 L97 431 L45 389 L171 240 L45 91 Z " />
<glyph glyph-name="fraction" unicode="&#x2044;" horiz-adv-x="337" d="M72 -100 L334 781 L266 801 L3 -80 L72 -100 Z " />
<glyph glyph-name="zerosuperior" unicode="&#x2070;" horiz-adv-x="390" d="M340 515 C340 633 283 694 195 694 C106 694 49 633 49 515 C49 396 106 338 195 338 C283 338 340 396 340 515 L340 515 Z M110 515 C110 603 145 639 195 639 C244 639 279 603 279 515 C279 425 244 393 195 393 C145 393 110 425 110 515 L110 515 Z " />
<glyph glyph-name="Euro" unicode="&#x20ac;" horiz-adv-x="681" d="M32 296 L32 234 L132 234 C165 70 277 -7 434 -7 C544 -7 604 31 632 49 L593 107 C566 88 515 62 438 62 C328 62 243 109 214 234 L454 234 L454 296 L204 296 C203 309 203 324 203 339 L203 368 L497 368 L497 429 L210 429 C235 569 321 625 437 625 C513 625 564 598 592 579 L631 636 C602 655 543 694 434 694 C271 694 156 609 129 429 L32 429 L32 368 L123 368 L123 340 C123 324 123 310 124 296 L32 296 Z " />
<glyph glyph-name="trademark" unicode="&#x2122;" horiz-adv-x="1095" d="M342 289 L342 338 L289 338 L289 668 L409 668 L409 600 L454 600 L454 718 L62 718 L62 600 L106 600 L106 668 L230 668 L230 338 L174 338 L174 289 L342 289 Z M1036 289 L1036 338 L983 338 L967 668 L1018 668 L1018 718 L892 718 L793 477 C782 450 768 405 768 405 L767 405 C767 405 752 452 742 477 L644 718 L517 718 L517 668 L569 668 L551 338 L499 338 L499 289 L654 289 L654 338 L607 338 L625 639 L626 639 L749 331 L783 331 L909 639 L910 639 L927 338 L880 338 L880 289 L1036 289 Z " />
<glyph glyph-name="Omega" unicode="&#x2126;" horiz-adv-x="795" d="M746 0 L746 62 L507 62 L507 131 C640 153 739 259 739 405 C739 592 577 699 397 699 C218 699 56 592 56 405 C56 259 155 153 289 131 L289 62 L49 62 L49 0 L351 0 L351 185 C236 185 140 254 140 399 C140 560 279 632 397 632 C516 632 656 560 656 399 C656 254 558 185 444 185 L444 0 L746 0 Z " />
<glyph glyph-name="onethird" unicode="&#x2153;" horiz-adv-x="764" d="M203 -30 L631 717 L579 748 L152 1 L203 -30 Z M282 344 L282 398 L205 398 L205 687 L154 687 L40 614 L65 569 L143 611 L143 398 L55 398 L55 344 L282 344 Z M662 174 C662 174 716 190 716 252 C716 300 682 348 593 348 C521 348 474 311 474 261 L474 242 L531 242 L531 251 C531 269 547 290 592 290 C633 290 651 266 651 246 C651 201 616 195 599 195 L557 195 L557 146 L603 146 C643 146 661 127 661 100 C661 71 636 50 589 50 C526 50 499 89 495 93 L461 51 C467 44 504 -8 589 -8 C674 -8 726 33 726 95 C726 162 662 171 662 171 L662 174 Z " />
<glyph glyph-name="partialdiff" unicode="&#x2202;" horiz-adv-x="626" d="M302 458 C137 458 44 346 44 192 C44 77 123 -7 260 -7 C445 -7 582 125 582 428 C582 647 488 754 332 754 C221 754 148 700 140 694 L172 640 C178 644 241 691 324 691 C442 691 508 616 508 429 C508 416 508 404 507 393 C482 414 418 458 302 458 L302 458 Z M268 56 C170 56 118 117 118 199 C118 310 190 395 305 395 C432 395 497 326 501 321 C478 134 389 56 268 56 L268 56 Z " />
<glyph glyph-name="Delta" unicode="&#x2206;" horiz-adv-x="678" d="M654 61 L374 688 L303 688 L24 61 L24 0 L654 0 L654 61 Z M338 601 L576 61 L101 61 L338 601 Z " />
<glyph glyph-name="product" unicode="&#x220f;" horiz-adv-x="731" d="M637 0 L637 682 L95 682 L95 0 L167 0 L167 619 L565 619 L565 0 L637 0 Z " />
<glyph glyph-name="summation" unicode="&#x2211;" horiz-adv-x="556" d="M283 342 L47 62 L47 0 L502 0 L502 63 L138 63 L374 342 L139 618 L502 618 L502 682 L47 682 L47 620 L283 342 Z " />
<glyph glyph-name="minus" unicode="&#x2212;" horiz-adv-x="573" d="M507 268 L507 331 L67 331 L67 268 L507 268 Z " />
<glyph glyph-name="radical" unicode="&#x221a;" horiz-adv-x="590" d="M23 339 L142 0 L222 0 L443 627 L576 627 L576 688 L387 688 L182 96 L100 339 L23 339 Z " />
<glyph glyph-name="infinity" unicode="&#x221e;" horiz-adv-x="711" d="M344 415 C315 459 284 496 210 496 C123 496 56 431 56 346 C56 261 123 196 210 196 C284 196 315 235 344 276 L355 292 L367 276 C396 235 427 196 500 196 C587 196 655 261 655 346 C655 431 587 496 500 496 C427 496 396 458 367 415 L355 398 L344 415 Z M118 346 C118 398 159 440 211 440 C265 440 291 407 304 387 L331 346 L304 303 C291 283 265 250 211 250 C159 250 118 293 118 346 L118 346 Z M593 346 C593 293 552 250 499 250 C445 250 419 283 406 303 L379 346 L406 387 C419 407 445 440 499 440 C552 440 593 398 593 346 L593 346 Z " />
<glyph glyph-name="integral" unicode="&#x222b;" horiz-adv-x="415" d="M245 586 C245 658 280 691 337 691 C380 691 407 676 407 676 L407 739 C407 739 376 755 326 755 C228 755 170 699 170 587 L170 -116 C170 -188 136 -221 78 -221 C35 -221 9 -206 9 -206 L9 -269 C9 -269 39 -285 89 -285 C187 -285 245 -229 245 -117 L245 586 Z " />
<glyph glyph-name="approxequal" unicode="&#x2248;" horiz-adv-x="501" d="M332 398 C387 398 417 435 431 474 L392 499 C370 474 354 460 327 460 C274 460 231 506 166 506 C111 506 81 468 67 429 L106 404 C127 430 144 443 171 443 C221 443 268 398 332 398 L332 398 Z M332 216 C387 216 417 253 431 292 L392 317 C370 292 354 278 327 278 C274 278 231 324 166 324 C111 324 81 286 67 247 L106 222 C127 248 144 261 171 261 C221 261 268 216 332 216 L332 216 Z " />
<glyph glyph-name="notequal" unicode="&#x2260;" horiz-adv-x="552" d="M195 -41 L234 95 L457 95 L457 165 L254 165 L302 329 L457 329 L457 400 L322 400 L369 560 L312 578 L260 400 L89 400 L89 329 L240 329 L192 165 L89 165 L89 95 L172 95 L138 -23 L195 -41 Z " />
<glyph glyph-name="lessequal" unicode="&#x2264;" horiz-adv-x="416" d="M350 99 L350 162 L62 162 L62 99 L350 99 Z M165 414 L343 566 L299 615 L75 435 L75 393 L299 213 L343 263 L165 414 Z " />
<glyph glyph-name="greaterequal" unicode="&#x2265;" horiz-adv-x="416" d="M351 99 L351 162 L63 162 L63 99 L351 99 Z M69 263 L114 213 L338 393 L338 435 L114 615 L69 566 L248 414 L69 263 Z " />
<glyph glyph-name="lozenge" unicode="&#x25ca;" horiz-adv-x="514" d="M33 332 L224 0 L282 0 L480 331 L282 664 L224 664 L33 332 Z M403 331 L254 77 L110 331 L254 588 L403 331 Z " />
<glyph glyph-name="commaaccent" unicode="&#xf6c3;" horiz-adv-x="169" d="M62 -213 C93 -203 140 -181 140 -113 C140 -69 116 -44 83 -44 C56 -44 34 -63 34 -90 C34 -117 53 -136 77 -136 C90 -136 95 -131 95 -131 C95 -131 97 -134 97 -140 C97 -169 64 -182 52 -186 L62 -213 Z " />
<glyph glyph-name="fi" unicode="&#xfb01;" horiz-adv-x="620" d="M522 467 L378 467 L378 405 L447 405 L447 62 L378 62 L378 0 L589 0 L589 62 L522 62 L522 467 Z M541 654 C541 686 514 712 481 712 C449 712 423 686 423 654 C423 620 449 594 481 594 C514 594 541 620 541 654 L541 654 Z M285 0 L285 62 L182 62 L182 407 L331 407 L331 467 L182 467 L182 586 C182 658 216 691 274 691 C317 691 344 676 344 676 L344 739 C344 739 313 755 263 755 C165 755 107 699 107 587 L107 467 L36 467 L36 407 L107 407 L107 62 L38 62 L38 0 L285 0 Z " />
<glyph glyph-name="fl" unicode="&#xfb02;" horiz-adv-x="619" d="M520 746 L377 746 L377 684 L445 684 L445 62 L377 62 L377 0 L587 0 L587 62 L520 62 L520 746 Z M285 0 L285 62 L182 62 L182 407 L331 407 L331 467 L182 467 L182 586 C182 658 216 691 274 691 C317 691 344 676 344 676 L344 739 C344 739 313 755 263 755 C165 755 107 699 107 587 L107 467 L36 467 L36 407 L107 407 L107 62 L38 62 L38 0 L285 0 Z " />
</font>
</svg>
